<svg width="784" height="148" viewBox="0 0 784 148" fill="none" xmlns="http://www.w3.org/2000/svg">
<rect y="16" width="784" height="132" rx="10" fill="#363744"/>
<mask id="mask0_240_6100" style="mask-type:alpha" maskUnits="userSpaceOnUse" x="592" y="0" width="75" height="16">
<rect x="592" width="75" height="16" fill="#D9D9D9"/>
</mask>
<g mask="url(#mask0_240_6100)">
<path d="M627.26 1.10922C628.676 0.413157 630.324 0.413157 631.74 1.10922C637.008 3.69923 650.481 10.2119 660.318 14C662.45 14.8209 664.752 15.6454 667.154 16.4609C672.767 18.3664 671.474 28 665.546 28H593.454C587.526 28 586.233 18.3664 591.846 16.4609C594.248 15.6454 596.55 14.8209 598.682 14C608.519 10.2119 621.992 3.69923 627.26 1.10922Z" fill="#363744"/>
</g>
<mask id="mask1_240_6100" style="mask-type:alpha" maskUnits="userSpaceOnUse" x="692" y="79" width="92" height="69">
<path d="M692 79H784V138C784 143.523 779.523 148 774 148H692V79Z" fill="#363744"/>
</mask>
<g mask="url(#mask1_240_6100)">
<path opacity="0.2" fill-rule="evenodd" clip-rule="evenodd" d="M727.376 81.4408C734.585 79.1156 742.424 78.3669 750.424 79.5441C778.291 83.6444 797.557 109.558 793.456 137.423C789.356 165.289 763.442 184.554 735.575 180.454C710.416 176.752 692.267 155.269 691.996 130.622C693.11 130.909 694.251 131.14 695.415 131.311C708.12 133.181 720.188 127.427 726.981 117.497L726.965 117.484C727.061 117.293 727.129 117.083 727.162 116.86C727.327 115.737 726.55 114.692 725.426 114.526C724.581 114.402 723.78 114.811 723.365 115.5L723.36 115.5C717.387 123.974 706.972 128.855 696.013 127.242C694.68 127.046 693.382 126.76 692.125 126.392C692.216 125.125 692.355 123.852 692.543 122.575C692.712 121.427 692.918 120.293 693.16 119.175C696.784 102.406 708.429 89.155 723.404 82.9072C724.704 82.3649 726.029 81.8753 727.376 81.4408ZM720.777 103.034C723.699 103.464 726.416 101.444 726.846 98.5226C727.275 95.6012 725.256 92.8844 722.334 92.4546C719.413 92.0247 716.696 94.0445 716.266 96.9659C715.836 99.8872 717.856 102.604 720.777 103.034Z" fill="#70C03F"/>
</g>
</svg>
