<svg width="212" height="250" viewBox="0 0 212 250" fill="none" xmlns="http://www.w3.org/2000/svg">
<g id="img_smile1">
<mask id="mask0_329_4313" style="mask-type:alpha" maskUnits="userSpaceOnUse" x="0" y="0" width="250" height="250">
<path id="Rectangle 40" d="M0 0H250V240C250 245.523 245.523 250 240 250H0V0Z" fill="#363744"/>
</mask>
<g mask="url(#mask0_329_4313)">
<path id="Subtract" opacity="0.2" fill-rule="evenodd" clip-rule="evenodd" d="M188.895 17.1474C230.515 42.4491 255.19 90.9762 247.653 142.194C237.604 210.485 174.095 257.7 105.802 247.651C44.1432 238.578 -0.334888 185.929 -0.998535 125.526C1.73234 126.23 4.52745 126.796 7.38029 127.216C38.5167 131.797 68.0921 117.696 84.7414 93.3598L84.7029 93.3289C84.9382 92.8604 85.1037 92.347 85.1842 91.8C85.5894 89.0463 83.6855 86.4855 80.9318 86.0804C78.8596 85.7755 76.8967 86.778 75.8793 88.4663L75.8646 88.465C61.2275 109.234 35.7012 121.196 8.84544 117.244C5.57858 116.764 2.3984 116.063 -0.682313 115.16C-0.458839 112.055 -0.118551 108.935 0.342038 105.805L0.3417 105.805C10.3908 37.5139 73.8997 -9.70067 142.193 0.348054C146.224 0.941255 150.182 1.72075 154.06 2.67652C166.602 5.7684 178.298 10.705 188.895 17.1474ZM69.5408 57.9155C76.7006 58.969 83.3588 54.0191 84.4123 46.8596C85.4658 39.7 80.5157 33.0421 73.356 31.9886C66.1962 30.9351 59.538 35.885 58.4845 43.0445C57.431 50.204 62.381 56.862 69.5408 57.9155Z" fill="#F7F5F4"/>
</g>
</g>
</svg>
