<svg width="784" height="284" viewBox="0 0 784 284" fill="none" xmlns="http://www.w3.org/2000/svg">
<rect y="16" width="784" height="268" rx="10" fill="#363744"/>
<mask id="mask0_1709_3515" style="mask-type:alpha" maskUnits="userSpaceOnUse" x="617" y="0" width="75" height="16">
<rect x="617" width="75" height="16" fill="#D9D9D9"/>
</mask>
<g mask="url(#mask0_1709_3515)">
<path d="M652.26 1.10922C653.676 0.413157 655.324 0.413157 656.74 1.10922C662.008 3.69923 675.481 10.2119 685.318 14C687.45 14.8209 689.752 15.6454 692.154 16.4609C697.767 18.3664 696.474 28 690.546 28H618.454C612.526 28 611.233 18.3664 616.846 16.4609C619.248 15.6454 621.55 14.8209 623.682 14C633.519 10.2119 646.992 3.69923 652.26 1.10922Z" fill="#363744"/>
</g>
<mask id="mask1_1709_3515" style="mask-type:alpha" maskUnits="userSpaceOnUse" x="692" y="215" width="92" height="69">
<path d="M692 215H784V274C784 279.523 779.523 284 774 284H692V215Z" fill="#363744"/>
</mask>
<g mask="url(#mask1_1709_3515)">
<path opacity="0.2" fill-rule="evenodd" clip-rule="evenodd" d="M727.376 217.441C734.585 215.116 742.424 214.367 750.425 215.544C778.291 219.645 797.557 245.558 793.457 273.423C789.356 301.289 763.442 320.554 735.576 316.454C710.416 312.752 692.267 291.269 691.996 266.622C693.111 266.909 694.251 267.14 695.415 267.311C708.12 269.181 720.188 263.427 726.982 253.497L726.965 253.484C727.061 253.293 727.129 253.083 727.162 252.86C727.327 251.737 726.55 250.692 725.426 250.526C724.581 250.402 723.78 250.811 723.365 251.5L723.36 251.5C717.387 259.974 706.971 264.855 696.013 263.242C694.68 263.046 693.382 262.76 692.125 262.392C692.217 261.125 692.355 259.852 692.543 258.575C692.712 257.427 692.918 256.293 693.16 255.175C696.784 238.407 708.429 225.155 723.404 218.908C724.704 218.365 726.029 217.876 727.376 217.441ZM720.778 239.034C723.7 239.464 726.417 237.444 726.846 234.523C727.276 231.601 725.257 228.885 722.335 228.455C719.414 228.025 716.697 230.045 716.267 232.966C715.837 235.887 717.857 238.604 720.778 239.034Z" fill="#70C03F"/>
</g>
</svg>
