<svg width="784" height="148" viewBox="0 0 784 148" fill="none" xmlns="http://www.w3.org/2000/svg">
<rect y="16" width="784" height="132" rx="10" fill="#363744"/>
<mask id="mask0_240_5562" style="mask-type:alpha" maskUnits="userSpaceOnUse" x="162" y="0" width="75" height="16">
<rect x="162" width="75" height="16" fill="#D9D9D9"/>
</mask>
<g mask="url(#mask0_240_5562)">
<path d="M197.26 1.10922C198.676 0.413157 200.324 0.413157 201.74 1.10922C207.008 3.69923 220.481 10.2119 230.318 14C232.45 14.8209 234.752 15.6454 237.154 16.4609C242.767 18.3664 241.474 28 235.546 28H163.454C157.526 28 156.233 18.3664 161.846 16.4609C164.248 15.6454 166.55 14.8209 168.682 14C178.519 10.2119 191.992 3.69923 197.26 1.10922Z" fill="#363744"/>
</g>
<mask id="mask1_240_5562" style="mask-type:alpha" maskUnits="userSpaceOnUse" x="692" y="79" width="92" height="69">
<path d="M692 79H784V138C784 143.523 779.523 148 774 148H692V79Z" fill="#363744"/>
</mask>
<g mask="url(#mask1_240_5562)">
<path opacity="0.2" fill-rule="evenodd" clip-rule="evenodd" d="M727.376 81.441C734.585 79.1157 742.424 78.367 750.424 79.5442C778.291 83.6445 797.557 109.558 793.456 137.423C789.356 165.289 763.442 184.554 735.575 180.454C710.416 176.752 692.267 155.269 691.996 130.622C693.11 130.909 694.251 131.14 695.415 131.311C708.12 133.181 720.188 127.427 726.981 117.497L726.965 117.484C727.061 117.293 727.129 117.083 727.162 116.86C727.327 115.737 726.55 114.692 725.426 114.527C724.581 114.402 723.78 114.811 723.365 115.5L723.36 115.5C717.387 123.974 706.972 128.855 696.013 127.242C694.68 127.046 693.382 126.76 692.125 126.392C692.216 125.125 692.355 123.852 692.543 122.575C692.712 121.427 692.918 120.293 693.16 119.175C696.784 102.406 708.429 89.1551 723.404 82.9074C724.704 82.365 726.029 81.8755 727.376 81.441ZM720.777 103.034C723.699 103.464 726.416 101.444 726.846 98.5227C727.275 95.6013 725.256 92.8846 722.334 92.4547C719.413 92.0248 716.696 94.0446 716.266 96.966C715.836 99.8874 717.856 102.604 720.777 103.034Z" fill="#70C03F"/>
</g>
</svg>
