<svg width="784" height="284" viewBox="0 0 784 284" fill="none" xmlns="http://www.w3.org/2000/svg">
<rect y="16" width="784" height="268" rx="10" fill="#363744"/>
<mask id="mask0_240_5776" style="mask-type:alpha" maskUnits="userSpaceOnUse" x="266" y="0" width="75" height="16">
<rect x="266" width="75" height="16" fill="#D9D9D9"/>
</mask>
<g mask="url(#mask0_240_5776)">
<path d="M301.26 1.10922C302.676 0.413157 304.324 0.413157 305.74 1.10922C311.008 3.69923 324.481 10.2119 334.318 14C336.45 14.8209 338.752 15.6454 341.154 16.4609C346.767 18.3664 345.474 28 339.546 28H267.454C261.526 28 260.233 18.3664 265.846 16.4609C268.248 15.6454 270.55 14.8209 272.682 14C282.519 10.2119 295.992 3.69923 301.26 1.10922Z" fill="#363744"/>
</g>
<mask id="mask1_240_5776" style="mask-type:alpha" maskUnits="userSpaceOnUse" x="692" y="215" width="92" height="69">
<path d="M692 215H784V274C784 279.523 779.523 284 774 284H692V215Z" fill="#363744"/>
</mask>
<g mask="url(#mask1_240_5776)">
<path opacity="0.2" fill-rule="evenodd" clip-rule="evenodd" d="M727.376 217.441C734.584 215.116 742.424 214.367 750.424 215.544C778.291 219.645 797.557 245.558 793.456 273.424C789.356 301.289 763.442 320.554 735.575 316.454C710.416 312.752 692.267 291.269 691.996 266.622C693.11 266.909 694.251 267.14 695.415 267.312C708.12 269.181 720.188 263.427 726.981 253.497L726.965 253.484C727.061 253.293 727.128 253.083 727.161 252.86C727.327 251.737 726.55 250.692 725.426 250.527C724.581 250.402 723.78 250.811 723.364 251.5L723.36 251.5C717.387 259.974 706.971 264.855 696.013 263.243C694.68 263.046 693.382 262.761 692.125 262.392C692.216 261.125 692.355 259.852 692.543 258.575C692.712 257.427 692.918 256.293 693.16 255.175C696.784 238.407 708.429 225.155 723.404 218.908C724.704 218.365 726.029 217.876 727.376 217.441ZM720.778 239.034C723.699 239.464 726.416 237.444 726.846 234.523C727.276 231.601 725.256 228.885 722.334 228.455C719.413 228.025 716.696 230.045 716.266 232.966C715.836 235.888 717.856 238.604 720.778 239.034Z" fill="#70C03F"/>
</g>
</svg>
