<svg width="35" height="11" viewBox="0 0 35 11" fill="none" xmlns="http://www.w3.org/2000/svg">
<g id="category_new">
<g id="NEW">
<path d="M9.20461 10.9049H7.06274C6.83229 10.4432 6.58828 10.0494 6.19515 9.45185L2.69767 4.16914C2.4401 3.76173 2.1012 3.17778 1.77585 2.53951C1.78941 2.72963 1.78941 2.72963 1.83008 3.2321C1.84363 3.49012 1.87074 4.10123 1.87074 4.41358V8.8679C1.87074 9.77778 1.91141 10.416 1.97919 10.9049H0C0.0677806 10.4568 0.108449 9.77778 0.108449 8.85432V1.84691C0.108449 1.14074 0.0813368 0.651852 0 0.0950613H2.11476C2.23676 0.434567 2.48077 0.841975 2.94168 1.53457L6.37138 6.70864C6.69672 7.19753 7.13052 7.9037 7.42875 8.44691C7.37453 7.91728 7.33386 7.10247 7.33386 6.5321V1.96914C7.33386 1.1679 7.30675 0.611111 7.22541 0.0950613H9.20461C9.12327 0.638272 9.09616 1.14074 9.09616 1.96914V9.15309C9.09616 9.91358 9.12327 10.4296 9.20461 10.9049Z" fill="#70C03F"/>
<path d="M19.5112 9.19383V11C19.0232 10.9321 18.5894 10.9049 17.7624 10.9049H13.5329C12.7196 10.9049 12.3535 10.9185 11.8113 10.9457C11.8926 10.4025 11.9197 9.95432 11.9197 9.15309V1.80617C11.9197 1.1 11.8926 0.692592 11.8113 0.05432C12.3535 0.081481 12.706 0.0950613 13.5329 0.0950613H17.6269C18.3047 0.0950613 18.752 0.0679012 19.3756 0V1.79259C18.8605 1.72469 18.4267 1.69753 17.6269 1.69753H13.7227V4.49506H17.0169C17.7218 4.49506 18.1827 4.4679 18.7791 4.4V6.17901C18.2233 6.09753 17.8573 6.08395 17.0169 6.08395H13.7092V9.28889H17.776C18.5351 9.28889 18.9283 9.26173 19.5112 9.19383Z" fill="#70C03F"/>
<path d="M31.9634 10.9049H30.1469C30.0927 10.579 29.9571 9.99506 29.8216 9.53333L28.3711 4.48148C28.2219 3.95185 28.0999 3.4358 27.9779 2.74321C27.8288 3.51728 27.6932 4.04691 27.5712 4.48148L26.1343 9.53333C25.9716 10.1444 25.8632 10.579 25.8225 10.9049H24.0195C23.9518 10.5654 23.9518 10.5654 23.6535 9.50617L21.4981 1.71111C21.2676 0.923456 21.1321 0.502469 20.9559 0.0950613H23.1248C23.1519 0.556789 23.2197 0.964197 23.3688 1.56173L24.6296 6.7358C24.7245 7.15679 24.8736 7.84938 24.9549 8.32469C25.1311 7.48272 25.226 7.10247 25.3345 6.72222L26.8392 1.48025C27.0019 0.909876 27.0968 0.461728 27.1374 0.0950613H28.8049C28.8455 0.420987 28.9675 0.950617 29.1166 1.45309L30.6349 6.68148C30.7298 7.03457 30.7976 7.30617 31.0145 8.32469C31.0823 8.01235 31.0823 8.01235 31.1636 7.53704C31.2043 7.31975 31.3127 6.79012 31.3398 6.6679L32.6006 1.54815C32.7361 1.0321 32.8175 0.475308 32.831 0.0950613H35C34.8102 0.556789 34.6882 0.923456 34.4713 1.71111L32.3023 9.49259C32.2074 9.87284 32.1397 10.1173 32.1125 10.2395C32.0041 10.6198 32.0041 10.6198 31.9634 10.9049Z" fill="#70C03F"/>
</g>
</g>
</svg>
