<svg width="52" height="140" viewBox="0 0 52 140" fill="none" xmlns="http://www.w3.org/2000/svg">
<g id="Group 257">
<path id="Vector" opacity="0.1" d="M40.3953 55.1475H9.37809C8.27964 55.1475 7.38916 56.0379 7.38916 57.1364V63.7376C7.38916 64.8361 8.27964 65.7266 9.37809 65.7266H40.3953C41.4938 65.7266 42.3843 64.8361 42.3843 63.7376V57.1364C42.3843 56.0379 41.4938 55.1475 40.3953 55.1475Z" fill="#6C63FF"/>
<path id="Vector_2" opacity="0.1" d="M40.3953 33.9863H9.37809C8.27964 33.9863 7.38916 34.8768 7.38916 35.9753V42.5765C7.38916 43.675 8.27964 44.5654 9.37809 44.5654H40.3953C41.4938 44.5654 42.3843 43.675 42.3843 42.5765V35.9753C42.3843 34.8768 41.4938 33.9863 40.3953 33.9863Z" fill="#6C63FF"/>
<path id="Vector_3" d="M30.4776 19.6761C30.3274 19.9173 30.2231 20.1841 30.1697 20.4631C30.1028 21.0119 30.4374 21.5152 30.7051 21.9943C31.0481 22.6099 31.3116 23.2666 31.4894 23.9485C31.6169 24.3705 31.656 24.8143 31.6046 25.2521C31.5392 25.581 31.4218 25.8973 31.2566 26.189C30.7399 27.1848 29.9743 28.1057 28.933 28.5206C28.1266 28.8175 27.2472 28.8531 26.4194 28.6223C25.5972 28.3896 24.8199 28.0204 24.1199 27.5302C23.53 27.1563 22.9994 26.6961 22.5459 26.1649C22.1129 25.5841 21.7482 24.9554 21.4591 24.2911C20.9023 23.1267 20.3375 21.8819 20.4392 20.605C20.4445 20.4892 20.4661 20.3748 20.5035 20.265C20.5904 20.0668 20.7118 19.8855 20.8622 19.7297C22.0043 18.3763 22.5898 16.6397 22.5004 14.8711L26.4007 15.7571C27.2599 15.9526 28.1192 16.148 28.9678 16.3916C29.6638 16.5923 30.7346 16.8707 31.187 17.4918C31.6394 18.1128 30.7854 19.1086 30.4776 19.6761Z" fill="#FFCDCD"/>
<path id="Vector_4" d="M28.3892 19.0118C32.304 19.0118 35.4776 15.8382 35.4776 11.9234C35.4776 8.00856 32.304 4.83496 28.3892 4.83496C24.4744 4.83496 21.3008 8.00856 21.3008 11.9234C21.3008 15.8382 24.4744 19.0118 28.3892 19.0118Z" fill="#FFCDCD"/>
<path id="Vector_5" d="M27.2489 26.2237C27.5487 25.5679 28.1965 25.1529 28.7881 24.7407C29.3797 24.3285 29.9794 23.8011 30.0945 23.0864C30.1015 22.9247 30.1416 22.7662 30.2122 22.6206C30.4398 22.278 30.9805 22.4493 31.3044 22.7009C32.0914 23.3139 32.6268 24.1839 33.1488 25.0325C33.8241 26.0644 34.4021 27.1568 34.8754 28.2956C35.6276 30.2792 35.7186 32.4448 35.8016 34.5622C35.8766 36.4896 35.9488 38.4464 35.4804 40.3149C35.1859 41.4981 34.6773 42.6465 34.6479 43.8645C34.5595 48.2894 33.023 52.5189 32.9159 56.9438C32.9079 58.2233 32.9722 59.5022 33.1087 60.7744L33.3603 63.6468C29.4681 63.4237 25.5866 63.0819 21.7158 62.6215C21.6033 61.2991 21.2259 60.0169 20.8806 58.7373C19.4666 53.5061 18.5603 48.1507 18.1742 42.7455C17.9681 39.8759 17.7566 37.017 17.4381 34.158C17.1517 31.5588 16.5895 28.9434 16.9268 26.3495C17.1033 25.1705 17.4742 24.0289 18.0243 22.9713C18.1982 22.5499 18.4972 22.1921 18.8809 21.946C19.0726 21.8534 19.2762 21.7876 19.4859 21.7506C20.0928 21.6277 20.7088 21.5551 21.3276 21.5338C21.4789 21.521 21.6312 21.5355 21.7773 21.5766C22.0381 21.7066 22.2523 21.9142 22.3903 22.1709C23.583 23.964 25.271 25.372 27.2489 26.2237Z" fill="#F7F5F4"/>
<path id="Vector_6" d="M23.9619 25.6558C24.4598 26.3678 25.5145 26.5365 25.9749 27.2619C26.13 27.5651 26.2478 27.886 26.3256 28.2176C26.6067 29.1143 27.1742 29.8933 27.5195 30.7686C28.0174 32.0268 28.0308 33.4188 28.0362 34.7706C28.0851 35.8474 28.0024 36.9261 27.7899 37.9829C27.6293 38.6441 27.3669 39.2731 27.1742 39.9263C26.8469 41.0371 26.7253 42.1983 26.8155 43.3527C26.8155 43.6021 26.8821 43.847 27.0082 44.0621C27.1898 44.2771 27.4268 44.4382 27.6935 44.5279C28.4778 44.8732 29.2996 45.2266 30.1563 45.1463C30.332 45.1407 30.5022 45.084 30.6461 44.983C30.7454 44.8925 30.8271 44.7845 30.8871 44.6644L31.4224 43.7596C31.907 42.9325 32.4129 42.0063 32.2255 41.0613C32.0894 40.5736 31.8848 40.1076 31.6178 39.6774C31.2757 38.9791 30.9841 38.2571 30.7452 37.5171C29.8912 35.0624 29.0266 32.5729 28.8339 29.9816C28.7205 28.9955 28.8303 27.9965 29.1551 27.0585C29.4065 26.4812 29.7226 25.9343 30.0974 25.4282C30.0126 25.3145 29.8953 25.2292 29.7609 25.1838C29.6265 25.1384 29.4815 25.1349 29.3452 25.1739C29.0759 25.2571 28.8151 25.3656 28.5662 25.4978C27.7792 25.8298 26.9065 25.7093 26.1115 25.4818C25.8009 25.3907 25.3084 25.0802 24.9872 25.1016C24.8774 25.115 23.9807 25.6879 23.9619 25.6558Z" fill="#363744"/>
<path id="Vector_7" d="M30.2285 25.6266C30.0679 25.4981 29.8189 25.3803 29.677 25.5302C29.6294 25.5952 29.5948 25.6689 29.5753 25.7471C29.4361 26.1218 29.0266 26.3065 28.6545 26.4511C28.2824 26.5957 27.8808 26.676 27.656 26.4002C27.585 26.2929 27.5501 26.1657 27.5564 26.0372C27.5626 25.9086 27.6097 25.7855 27.6908 25.6855C27.8554 25.4871 28.0539 25.3195 28.277 25.1903C29.5083 24.3212 30.3471 23.0014 30.6113 21.5176C30.9566 21.792 31.1852 22.187 31.2511 22.6231C31.3394 23.0488 31.3501 23.4878 31.4384 23.9134C31.5696 24.5237 31.8614 25.0939 31.9283 25.7123C31.9631 26.0415 31.9283 26.3735 31.9283 26.7027C31.9403 27.0246 31.9779 27.3451 32.0407 27.6611C31.4143 26.9972 30.9727 26.2182 30.2285 25.6266Z" fill="#F7F5F4"/>
<path id="Vector_8" d="M24.8107 23.8092C24.543 23.5549 24.2753 23.314 24.0076 23.0544C22.833 21.9078 21.946 20.4999 21.419 18.9453C21.0764 19.213 20.6989 19.5664 20.6909 20.0161C20.7214 20.3343 20.8443 20.6367 21.0443 20.8861C22.0565 22.4802 22.7249 24.2682 23.0064 26.1355C23.1511 25.9095 23.3514 25.7246 23.5881 25.5985C23.8249 25.4724 24.0901 25.4093 24.3583 25.4154C24.7812 25.4154 26.6791 26.5397 26.8157 26.2559C27.0164 25.8116 25.1319 24.1117 24.8107 23.8092Z" fill="#F7F5F4"/>
<path id="Union" fill-rule="evenodd" clip-rule="evenodd" d="M30.7879 21.6783C33.306 24.185 36.3886 26.0512 39.7769 27.1204C40.1138 27.1939 40.4262 27.3524 40.6844 27.5808C40.8773 27.8217 41.007 28.107 41.0619 28.4107C41.715 30.9644 41.9345 33.6065 42.1514 36.2326C42.2081 36.6669 42.1991 37.1073 42.1246 37.5389C42.0928 37.6802 42.0471 37.8161 41.9906 37.9473L42.4349 42.4138L42.4453 42.5138C42.5595 43.621 42.674 44.7301 42.8793 45.8242C43.1209 47.1029 43.486 48.3532 43.851 49.603L43.8511 49.6031L43.8511 49.6031L43.8724 49.6762C44.0541 50.3925 44.3145 51.0864 44.6487 51.7455C44.7699 51.9368 44.8662 52.1428 44.9352 52.3585C45.029 52.7416 44.9022 53.1247 44.7754 53.5078C44.725 53.66 44.6746 53.8123 44.638 53.9646C44.4637 54.6908 44.6046 55.4537 44.7441 56.2084C44.913 57.123 45.0798 58.0256 44.6808 58.8366C44.5912 59.0203 44.4743 59.1911 44.3575 59.3616C44.1883 59.6086 44.0195 59.8552 43.934 60.1402C43.7972 60.5897 43.8823 61.0639 43.9665 61.5327C43.9861 61.6418 44.0056 61.7506 44.0223 61.8588C44.2499 63.4649 43.7011 65.0979 43.1604 66.6424L42.2395 69.2497L42.2361 69.2433L42.0884 68.9689C42.1088 69.3048 42.1243 69.6392 42.138 69.9695C42.2049 71.4311 42.1835 73.1095 41.0672 74.0679C40.7939 74.3049 40.4783 74.4742 40.1412 74.6012L40.6976 79.7746L40.7178 79.9661L40.7178 79.9661C40.9791 82.446 41.2417 84.9381 41.0616 87.4252C40.9882 88.4354 40.8429 89.4456 40.6977 90.4548C40.4198 92.3871 40.1424 94.3154 40.371 96.2322C40.4252 96.6826 40.5068 97.1296 40.5883 97.5765C40.7122 98.2557 40.8361 98.9344 40.8635 99.6238C40.872 100.384 40.8336 101.144 40.7484 101.899C40.2949 107.561 41.2572 113.19 42.2186 118.812C42.5395 120.689 42.8603 122.565 43.1282 124.441C43.3004 125.366 43.3383 126.311 43.2406 127.247C43.237 127.272 43.2332 127.297 43.2294 127.322C43.2208 127.379 43.2119 127.437 43.2028 127.495C43.0622 128.404 42.8951 129.483 43.6689 129.894L43.4369 129.978C43.7716 130.3 44.0441 130.735 44.285 131.199C44.4037 131.426 44.5131 131.659 44.6224 131.892C44.863 132.406 45.1036 132.919 45.4441 133.37C46.3628 134.598 47.8058 135.168 49.2641 135.744C50.1004 136.074 50.9417 136.406 51.692 136.866C51.795 136.918 51.8799 137 51.9356 137.101C52.0293 137.323 51.8205 137.556 51.6197 137.695C50.0591 138.79 48.0113 138.814 46.1026 138.801C45.4612 138.824 44.8195 138.763 44.194 138.619C43.6764 138.482 43.1968 138.23 42.718 137.978C42.2634 137.739 41.8094 137.5 41.3244 137.361C40.808 137.232 40.2796 137.157 39.7477 137.139L37.657 136.997C37.1004 136.989 36.5492 136.886 36.0268 136.694C35.7665 136.595 35.5357 136.431 35.3559 136.218C35.1761 136.005 35.0533 135.75 34.9989 135.476C34.9539 135.137 35.054 134.806 35.1539 134.475C35.1849 134.372 35.2158 134.27 35.2424 134.167C35.3185 133.875 35.3663 133.566 35.414 133.257C35.4526 133.006 35.4913 132.756 35.5449 132.515C35.0664 131.705 35.1261 130.67 35.1859 129.636C35.2199 129.047 35.2538 128.458 35.1885 127.911C35.0784 127.005 34.7273 126.161 34.3753 125.314C34.1623 124.802 33.949 124.289 33.7885 123.761C33.4538 122.669 33.3492 121.526 33.2451 120.389L33.2451 120.389L33.2209 120.126C33.213 120.041 33.2051 119.957 33.1969 119.872C32.8722 116.54 32.2327 113.25 31.5933 109.96C30.8677 106.226 30.1422 102.493 29.8776 98.7029C29.8616 98.0145 29.7718 97.3298 29.6099 96.6605C29.4357 96.084 29.1482 95.5551 28.861 95.0266L28.8609 95.0265C28.7067 94.7428 28.5525 94.4591 28.416 94.1683C27.8163 92.9182 27.5219 91.5476 27.2328 90.1931L25.5329 82.2293C24.1391 84.3049 23.9215 86.8877 23.7077 89.4263C23.6579 90.0177 23.6082 90.6066 23.544 91.1862C23.1869 94.396 22.4991 97.5652 21.8117 100.732L21.8116 100.733L21.8115 100.733L21.8115 100.733C21.5817 101.792 21.352 102.85 21.1348 103.91C20.9333 104.82 20.7823 105.74 20.6824 106.667C20.5711 107.895 20.6245 109.13 20.6778 110.364C20.7322 111.623 20.7866 112.881 20.6663 114.133C20.5628 115.243 20.3188 116.344 20.0753 117.442C19.6891 119.183 19.3042 120.918 19.4832 122.68C19.5947 123.784 19.923 124.847 20.2512 125.909C20.3958 126.377 20.5403 126.845 20.6663 127.316C21.0786 128.858 21.282 130.55 20.653 132.02C20.4274 131.937 20.2001 131.86 19.9714 131.788C20.0704 132.226 20.1169 132.743 20.1576 133.195L20.1576 133.195C20.1815 133.462 20.2035 133.706 20.2331 133.899C20.4026 134.923 20.5374 135.953 20.6373 136.988C20.6908 137.558 20.7069 138.211 20.2946 138.61C20.038 138.823 19.7279 138.962 19.3979 139.012C17.4197 139.472 15.2139 139.504 13.4926 138.428C13.3136 138.326 13.1555 138.191 13.0269 138.029C12.8833 137.81 12.8019 137.555 12.7913 137.293C12.733 136.576 12.9386 135.868 13.1402 135.175L13.1741 135.058C13.5386 133.795 13.8392 132.515 14.0751 131.222C13.9735 131.234 13.872 131.246 13.7706 131.259C11.2196 128.649 10.7672 125.009 10.5932 121.355C10.5228 119.877 10.5496 118.398 10.5765 116.921C10.616 114.747 10.6554 112.577 10.3844 110.422C10.3432 110.093 10.2949 109.766 10.2468 109.44C10.1385 108.707 10.031 107.979 10.0069 107.24C9.93065 104.917 10.6639 102.695 11.3992 100.467C11.7477 99.4112 12.0965 98.354 12.3599 97.2842C13.0971 94.2888 13.1674 91.1681 12.566 88.1426C12.4075 87.3531 12.2039 86.5728 12.0004 85.7928C11.6884 84.5971 11.3766 83.4021 11.2276 82.1758C10.893 79.3356 11.4605 76.474 12.0307 73.6686L12.0833 73.4081L12.0834 73.4078L12.0834 73.4077C12.3185 72.2449 12.5536 71.0824 12.8017 69.9225C12.4287 69.2267 12.0988 68.5094 11.8136 67.7747C10.761 68.5621 9.81114 69.4802 8.98731 70.5076C5.44845 65.119 2.30577 59.3878 0.581844 53.1747C0.326464 52.3578 0.179757 51.5109 0.145508 50.6557C0.16445 49.9212 0.261359 49.1908 0.434609 48.4767C0.771899 46.8527 1.1547 45.2377 1.583 43.6315C2.02201 41.9968 2.51457 40.3764 3.06066 38.7703C3.59314 37.1999 4.17886 35.6467 4.77776 34.0977C4.79407 33.3387 4.90808 32.5789 5.1218 31.8371C5.49665 30.699 5.98825 29.6028 6.58875 28.5659L7.47212 26.9089C7.6366 26.513 7.89191 26.1613 8.21743 25.8823C8.54294 25.6033 8.92953 25.4048 9.34595 25.3028L15.4573 22.8936C16.2388 22.6267 16.9807 22.2557 17.6631 21.7907C18.0732 21.482 18.426 21.1087 18.7787 20.7356L18.7787 20.7356C19.0683 20.4292 19.3577 20.123 19.6788 19.8526C19.7825 19.7436 19.907 19.6565 20.0449 19.5962C20.1828 19.536 20.3314 19.504 20.4819 19.502C21.0547 19.5528 21.2582 20.2756 21.317 20.8404C21.3924 21.5521 21.7226 22.2026 22.0536 22.8547C22.3102 23.3602 22.5672 23.8667 22.7064 24.4034C23.4352 27.2723 24.508 30.0469 25.5794 32.8178L25.5794 32.8178L25.5794 32.8178L25.5794 32.8178C27.0422 36.6009 28.5022 40.3768 29.0801 44.3757L29.0995 44.329L29.0995 44.3289C30.2174 41.6435 31.337 38.9537 32.7688 36.4253C32.996 36.0602 33.187 35.6738 33.339 35.2716C33.5119 34.6914 33.5763 34.0843 33.5291 33.4807C33.4568 31.7392 32.9943 30.0377 32.5368 28.355L32.5359 28.3518C32.4003 27.8288 32.2678 27.3152 32.1366 26.807L32.1362 26.8053L32.135 26.8008L32.1337 26.7957C31.6911 25.0808 31.2641 23.4264 30.7879 21.6783ZM11.2441 63.1635C11.1698 63.2555 11.0955 63.3475 11.0352 63.4493C10.4674 62.4886 9.961 61.5061 9.7181 60.421C9.62291 59.9977 9.5705 59.5661 9.51809 59.1346C9.45849 58.6438 9.3989 58.1531 9.27641 57.6746C9.15181 57.1862 8.96272 56.7154 8.77388 56.2451C8.51241 55.594 8.25142 54.944 8.16283 54.2508C8.10341 53.7774 8.12267 53.2885 8.14182 52.8024C8.1753 51.9525 8.20844 51.1113 7.82018 50.3773C8.92827 49.946 9.62057 48.8825 10.1313 47.7874C10.2323 48.7842 10.4601 49.7707 10.6877 50.7562L10.6877 50.7562C10.7855 51.1795 10.8832 51.6026 10.9708 52.0263C11.3456 53.8385 11.5169 55.7954 10.7406 57.4764C10.6731 57.6217 10.5984 57.7653 10.5238 57.9089C10.3053 58.3289 10.0865 58.7496 10.0446 59.2164C9.98841 59.8428 10.4354 60.5763 11.0592 60.5174C11.4687 61.2509 11.8756 62.1584 11.4527 62.8784C11.3922 62.9801 11.3181 63.0718 11.2441 63.1635ZM36.519 50.1989C36.9644 49.1166 37.0854 47.91 37.0898 46.7273C37.0395 46.838 36.9854 46.9474 36.9313 47.057C36.8355 47.2507 36.7396 47.4448 36.6637 47.6469C36.3608 48.455 36.3925 49.3208 36.519 50.1989Z" fill="url(#paint0_linear_332_4442)"/>
<path id="Vector_9" d="M14.1487 68.7329C14.229 68.7918 14.32 68.8721 14.2986 68.9684C14.2772 69.0648 14.1995 69.0889 14.1299 69.1291C13.7681 69.3858 13.4979 69.7517 13.359 70.1731C12.9141 71.1756 12.5263 72.2025 12.1972 73.2488C11.5982 72.3513 10.8936 71.529 10.0985 70.7994C9.48819 70.2373 8.80559 69.7046 8.479 68.9443C8.479 68.9229 9.8817 67.887 10.0102 67.7745C10.4037 67.4239 10.8989 66.4522 11.3058 66.238C11.7662 65.9971 12.2052 66.942 12.5559 67.3221C13.0383 67.8445 13.5719 68.3171 14.1487 68.7329Z" fill="#FBBEBE"/>
<path id="Vector_10" d="M35.9167 10.8154C35.898 10.4647 35.8525 10.0766 35.5848 9.84902C35.3499 9.68648 35.0668 9.60818 34.7817 9.62685C33.2211 9.57598 31.6069 9.83832 30.1346 9.31365C29.1656 8.96832 28.3384 8.30445 27.3935 7.89221C26.4486 7.47997 25.2386 7.37022 24.4757 8.06353C23.8975 8.59891 23.7395 9.42072 23.5388 10.1783C23.0967 11.8503 22.3098 13.4113 21.2286 14.7611C20.5032 14.5363 19.9838 13.8885 19.6492 13.2085C18.5115 10.8903 19.071 8.12243 19.8794 5.66503C20.1471 4.84055 20.4443 4.02409 20.7414 3.21032L21.3946 1.41144C22.2518 1.32725 23.0483 0.930928 23.6324 0.297849L23.9135 0.980459C24.6394 0.954346 25.34 0.70681 25.9212 0.271078C26.1461 0.694029 26.7243 0.80646 27.1927 0.669938C27.6612 0.533416 28.0654 0.27108 28.5312 0.134558C29.7759 -0.266977 31.1037 0.351389 32.41 0.420988C32.9628 0.407531 33.5159 0.423613 34.067 0.46917C35.6089 0.718122 36.6984 2.169 37.1695 3.65736C37.4827 4.64781 37.7424 5.8658 38.7195 6.21647C38.7409 6.59124 38.077 6.66352 38.0208 7.01954C38.0142 7.13824 38.0421 7.25632 38.1011 7.35951L38.9979 9.2842C38.5692 9.39182 38.1182 9.36945 37.7022 9.21996C37.298 10.1703 35.9569 11.5408 35.9167 10.8154Z" fill="#363744"/>
</g>
<defs>
<linearGradient id="paint0_linear_332_4442" x1="8.4999" y1="31.5" x2="67.9996" y2="142.5" gradientUnits="userSpaceOnUse">
<stop stop-color="#70C03F"/>
<stop offset="1" stop-color="#F7F5F4"/>
</linearGradient>
</defs>
</svg>
