<svg width="20" height="20" viewBox="0 0 20 20" fill="none" xmlns="http://www.w3.org/2000/svg">
<path id="icon_phone" d="M13.952 12.8306L13.4464 13.3635C13.4464 13.3635 12.2431 14.6294 8.95978 11.1729C5.67647 7.71645 6.87979 6.45056 6.87979 6.45056L7.19757 6.11409C7.98312 5.28821 8.05756 3.96115 7.37201 2.99174L5.97202 1.01174C5.12314 -0.188259 3.48426 -0.347083 2.51205 0.676447L0.767613 2.51174C0.286505 3.01998 -0.0357153 3.67645 0.00317331 4.40586C0.103173 6.27292 0.900945 10.2882 5.3498 14.9729C10.0687 19.94 14.4964 20.1376 16.3064 19.9588C16.8797 19.9023 17.3775 19.5941 17.7786 19.1706L19.3564 17.5094C20.423 16.3882 20.123 14.4647 18.7586 13.68L16.6364 12.4576C15.7408 11.9423 14.652 12.0941 13.952 12.8306Z" fill="#F7F5F4"/>
</svg>
