<svg width="114" height="175" viewBox="0 0 114 175" fill="none" xmlns="http://www.w3.org/2000/svg">
<path d="M25.3333 50C25.3333 36.2109 36.6938 25 50.6667 25H63.3333C77.3063 25 88.6667 36.2109 88.6667 50V51.4063C88.6667 59.9219 84.2729 67.8516 77.0292 72.4219L60.325 83.0078C55.4205 86.1198 51.3862 90.3971 48.5921 95.4476C45.7981 100.498 44.3337 106.16 44.3333 111.914V112.5C44.3333 119.414 49.9938 125 57 125C64.0062 125 69.6667 119.414 69.6667 112.5V111.953C69.6667 108.75 71.3292 105.781 74.0208 104.062L90.725 93.4766C105.213 84.2578 114 68.4375 114 51.4063V50C114 22.3828 91.3187 0 63.3333 0H50.6667C22.6813 0 0 22.3828 0 50C0 56.9141 5.66042 62.5 12.6667 62.5C19.6729 62.5 25.3333 56.9141 25.3333 50ZM57 175C61.1993 175 65.2265 173.354 68.1959 170.424C71.1652 167.493 72.8333 163.519 72.8333 159.375C72.8333 155.231 71.1652 151.257 68.1959 148.326C65.2265 145.396 61.1993 143.75 57 143.75C52.8007 143.75 48.7735 145.396 45.8041 148.326C42.8348 151.257 41.1667 155.231 41.1667 159.375C41.1667 163.519 42.8348 167.493 45.8041 170.424C48.7735 173.354 52.8007 175 57 175Z" fill="#DDF2CF"/>
</svg>
