<svg width="168" height="168" viewBox="0 0 168 168" fill="none" xmlns="http://www.w3.org/2000/svg">
<rect width="168" height="168" rx="20" fill="#EDEDED"/>
<g clip-path="url(#clip0_303_3254)">
<path d="M117.646 125.541C117.823 125.541 117.98 125.651 118.04 125.815L118.463 126.989C118.615 127.027 118.745 127.065 118.856 127.105C118.976 127.148 119.132 127.213 119.324 127.303L120.31 126.781C120.391 126.738 120.483 126.723 120.573 126.737C120.663 126.751 120.746 126.794 120.809 126.859L121.677 127.756C121.792 127.876 121.825 128.05 121.76 128.203L121.297 129.287C121.374 129.428 121.435 129.548 121.482 129.649C121.532 129.759 121.595 129.91 121.669 130.105L122.747 130.567C122.909 130.636 123.01 130.798 122.999 130.972L122.92 132.217C122.914 132.297 122.885 132.375 122.836 132.44C122.787 132.504 122.72 132.553 122.644 132.58L121.622 132.943C121.593 133.084 121.562 133.204 121.53 133.306C121.478 133.464 121.418 133.619 121.351 133.771L121.864 134.905C121.9 134.984 121.91 135.073 121.892 135.159C121.874 135.245 121.829 135.322 121.763 135.38L120.788 136.252C120.724 136.309 120.643 136.345 120.558 136.355C120.473 136.365 120.386 136.349 120.31 136.309L119.305 135.776C119.147 135.86 118.985 135.933 118.819 135.997L118.379 136.161L117.989 137.241C117.961 137.32 117.908 137.389 117.84 137.438C117.771 137.486 117.69 137.514 117.605 137.515L116.465 137.541C116.379 137.543 116.294 137.519 116.222 137.471C116.15 137.423 116.095 137.354 116.064 137.273L115.604 136.057C115.448 136.003 115.292 135.945 115.139 135.883C115.013 135.828 114.89 135.77 114.768 135.707L113.628 136.194C113.553 136.226 113.47 136.236 113.39 136.221C113.309 136.207 113.235 136.17 113.175 136.114L112.331 135.323C112.269 135.264 112.226 135.187 112.209 135.103C112.193 135.019 112.203 134.931 112.238 134.853L112.729 133.785C112.663 133.659 112.603 133.53 112.547 133.399C112.483 133.238 112.423 133.076 112.367 132.912L111.293 132.585C111.206 132.559 111.13 132.504 111.077 132.43C111.024 132.356 110.997 132.266 110.999 132.175L111.041 131.023C111.044 130.947 111.068 130.874 111.109 130.812C111.151 130.749 111.209 130.699 111.277 130.666L112.403 130.125C112.456 129.934 112.501 129.785 112.541 129.676C112.598 129.531 112.661 129.389 112.73 129.249L112.241 128.217C112.204 128.139 112.193 128.051 112.209 127.965C112.226 127.88 112.268 127.802 112.331 127.743L113.174 126.947C113.233 126.892 113.307 126.854 113.387 126.84C113.466 126.825 113.549 126.834 113.624 126.865L114.763 127.335C114.889 127.251 115.003 127.183 115.106 127.129C115.229 127.063 115.393 126.995 115.6 126.921L115.996 125.816C116.026 125.736 116.079 125.666 116.15 125.616C116.22 125.567 116.304 125.541 116.39 125.541H117.646ZM117.014 129.752C116.014 129.752 115.203 130.553 115.203 131.542C115.203 132.531 116.014 133.333 117.014 133.333C118.013 133.333 118.824 132.531 118.824 131.542C118.824 130.553 118.014 129.752 117.014 129.752Z" fill="white"/>
</g>
<rect x="27" y="125.541" width="2.57142" height="12" rx="1" fill="white"/>
<rect x="33.4285" y="125.541" width="2.57142" height="12" rx="1" fill="white"/>
<rect x="129" y="125.541" width="1.71429" height="4.28573" rx="0.857145" fill="white"/>
<rect x="129" y="125.541" width="4.28573" height="1.71429" rx="0.857145" fill="white"/>
<rect x="129" y="133.255" width="1.71429" height="4.28573" rx="0.857145" fill="white"/>
<rect x="129" y="135.827" width="4.28573" height="1.71429" rx="0.857145" fill="white"/>
<rect x="136.714" y="125.541" width="4.28573" height="1.71429" rx="0.857145" fill="white"/>
<rect x="139.286" y="125.541" width="1.71429" height="4.28573" rx="0.857145" fill="white"/>
<rect x="136.714" y="135.827" width="4.28573" height="1.71429" rx="0.857145" fill="white"/>
<rect x="139.286" y="133.255" width="1.71429" height="4.28573" rx="0.857145" fill="white"/>
<rect x="52.6665" y="125.541" width="1.33333" height="12" rx="0.666667" fill="white"/>
<path d="M44 125.541L52 131.541L44 137.541V125.541Z" fill="white"/>
<rect x="27" y="118.541" width="114" height="2" rx="1" fill="white"/>
<path fill-rule="evenodd" clip-rule="evenodd" d="M91.439 121.541C92.5435 121.541 93.439 120.646 93.439 119.541C93.439 118.436 92.5435 117.541 91.439 117.541C90.6987 117.541 90.0523 117.943 89.7065 118.541H28C27.4477 118.541 27 118.989 27 119.541C27 120.093 27.4477 120.541 28 120.541H89.7065C90.0524 121.139 90.6987 121.541 91.439 121.541Z" fill="#70C03F"/>
<path fill-rule="evenodd" clip-rule="evenodd" d="M127.149 33.3159C122.698 29.0745 112.821 34.0555 108.576 39.512L113.674 47.3844C113.674 47.3844 119.138 45.8363 123.876 43.198C126.46 41.7587 131.249 37.2229 127.149 33.3159ZM98.3507 67.2913C95.9413 62.1658 90.1235 65.2746 87.9406 67.2714C83.9392 70.9316 80.7425 75.6252 80.7425 75.6252L86.5984 82.9513C93.1174 80.6501 100.967 72.8558 98.3507 67.2913ZM41.1458 89.345C41.5162 82.4417 46.7818 72.7137 52.8578 73.6548C58.4547 74.5218 57.1121 80.9799 55.8116 83.6372C53.4278 88.508 49.8257 92.8983 49.8257 92.8983L41.1458 89.345ZM41.9605 101.77C36.0543 99.596 40.3465 91.7054 40.3465 91.7054L49.1424 95.0005C49.1424 95.0005 47.1938 103.696 41.9605 101.77ZM74.4478 85.6727C71.1244 81.1948 78.9183 76.8738 78.9183 76.8738L84.5593 84.3841C84.5593 84.3841 78.1986 90.7265 74.4478 85.6727ZM102.151 50.178C98.5434 45.0213 106.572 40.9932 106.572 40.9932L111.913 48.72C111.913 48.72 105.348 54.7472 102.151 50.178Z" fill="url(#paint0_linear_303_3254)"/>
<defs>
<linearGradient id="paint0_linear_303_3254" x1="92.4998" y1="55.541" x2="131.783" y2="100.004" gradientUnits="userSpaceOnUse">
<stop stop-color="#70C03F"/>
<stop offset="1" stop-color="white"/>
</linearGradient>
<clipPath id="clip0_303_3254">
<rect width="12" height="12" fill="white" transform="translate(111 125.541)"/>
</clipPath>
</defs>
</svg>
