<svg width="207" height="155" viewBox="0 0 207 155" fill="none" xmlns="http://www.w3.org/2000/svg">
<g id="img_smile1">
<mask id="mask0_303_5532" style="mask-type:alpha" maskUnits="userSpaceOnUse" x="0" y="0" width="207" height="155">
<path id="Rectangle 40" d="M0 0H207V125C207 141.569 193.569 155 177 155H0V0Z" fill="#363744"/>
</mask>
<g mask="url(#mask0_303_5532)">
<path id="Subtract" opacity="0.2" fill-rule="evenodd" clip-rule="evenodd" d="M79.5965 5.48378C95.8157 0.260481 113.454 -1.42143 131.455 1.22295C194.155 10.4338 237.504 68.645 228.278 131.241C219.052 193.838 160.744 237.115 98.0449 227.905C41.4359 219.588 0.600802 171.329 -0.00830078 115.963C2.4988 116.608 5.06486 117.127 7.68392 117.512C36.27 121.711 63.423 108.785 78.7087 86.4784L78.6724 86.4494C78.888 86.0203 79.0397 85.5502 79.1136 85.0493C79.4856 82.5253 77.7376 80.1781 75.2094 79.8066C73.3071 79.5272 71.5051 80.446 70.571 81.9933L70.5602 81.9924C57.1219 101.029 33.6867 111.993 9.03085 108.371C6.03108 107.931 3.11091 107.288 0.282094 106.46C0.487265 103.614 0.799658 100.755 1.22248 97.8861C7.30476 56.6191 34.7186 23.7484 70.6595 8.77788C73.5843 7.5596 76.5656 6.45986 79.5965 5.48378ZM64.7499 53.9894C71.3232 54.9551 77.436 50.4179 78.4033 43.8554C79.3705 37.2929 74.8259 31.1901 68.2525 30.2244C61.6792 29.2588 55.5664 33.7959 54.5991 40.3585C53.6319 46.921 58.1765 53.0238 64.7499 53.9894Z" fill="#70C03F"/>
</g>
</g>
</svg>
