<svg width="241" height="60" viewBox="0 0 241 60" fill="none" xmlns="http://www.w3.org/2000/svg">
<path d="M103.428 32.584L104.508 29.8C109.14 30.352 112.14 30.952 117.492 32.392L116.532 35.344C112.572 34.024 107.652 32.992 103.428 32.584ZM103.044 39.184L104.148 36.424C107.988 36.904 111.828 37.768 116.652 39.208L115.716 42.16C113.82 41.416 112.116 40.912 109.116 40.24C107.076 39.76 105.516 39.496 103.044 39.184ZM101.1 45.928L102.228 43.192C108.036 43.96 112.572 45.04 118.164 46.984L117.132 50.008C114.636 48.904 112.428 48.208 108.636 47.32C105.684 46.624 103.716 46.264 101.1 45.928ZM141.54 29.512L143.46 31.96C143.172 32.032 143.172 32.032 141.444 32.608C140.076 33.04 139.308 33.232 137.436 33.592C137.412 36.832 137.412 36.832 137.364 37.648H142.452C144.084 37.648 144.492 37.624 145.38 37.48V40.36C144.492 40.264 144.036 40.24 142.5 40.24H137.196C136.932 42.472 136.428 44.08 135.588 45.472C134.748 46.864 133.356 48.208 131.676 49.288C131.004 49.72 130.548 49.984 129.444 50.488C128.748 49.264 128.364 48.808 127.356 47.944C129.084 47.32 129.996 46.816 131.076 45.928C132.516 44.776 133.428 43.408 133.836 41.848C133.932 41.44 134.004 41.032 134.1 40.24H128.172C126.636 40.24 126.18 40.264 125.292 40.36V37.48C126.18 37.624 126.588 37.648 128.22 37.648H134.364C134.412 36.64 134.412 35.704 134.412 34.024C132.468 34.312 131.724 34.384 127.764 34.576C127.524 33.496 127.404 33.136 126.876 31.984C127.62 32.032 128.004 32.032 128.364 32.032C131.58 32.032 135.684 31.48 138.636 30.64C140.028 30.232 140.724 29.968 141.54 29.512ZM156.9 37.024C158.484 37.024 159.756 38.296 159.756 39.88C159.756 41.464 158.484 42.736 156.9 42.736C155.316 42.736 154.044 41.464 154.044 39.88C154.044 38.296 155.316 37.024 156.9 37.024ZM168.54 32.56L171.324 31.744C172.572 33.952 173.34 35.8 174.228 38.8L171.276 39.712C170.604 37.024 169.668 34.552 168.54 32.56ZM174.852 31.36L177.588 30.592C178.74 32.56 179.652 34.696 180.468 37.384L177.54 38.32C176.844 35.656 176.124 33.808 174.852 31.36ZM185.1 31.12L188.388 31.864C188.172 32.392 188.124 32.56 187.788 34.192C186.084 41.896 182.268 46.72 175.068 50.224C174.42 49.072 174.108 48.64 172.956 47.536C175.62 46.552 177.756 45.232 179.7 43.36C181.644 41.536 182.916 39.52 183.9 36.76C184.644 34.696 185.052 32.728 185.1 31.12ZM205.884 35.344H210.636C212.316 35.344 212.82 35.32 213.756 35.176V38.2C212.892 38.104 212.268 38.08 210.684 38.08H205.764C205.548 41.416 205.14 43 204.036 44.848C202.716 47.032 201.036 48.52 197.916 50.224C197.1 48.856 196.74 48.424 195.732 47.632C198.612 46.384 200.436 44.896 201.516 42.904C202.236 41.608 202.5 40.528 202.692 38.08H196.74C195.156 38.08 194.532 38.104 193.668 38.2V35.176C194.604 35.32 195.132 35.344 196.788 35.344H202.836C202.86 34.336 202.86 33.904 202.86 33.472V32.056C202.86 31.024 202.836 30.4 202.74 29.752H206.052C205.956 30.52 205.956 30.544 205.932 32.056L205.908 33.496C205.884 35.08 205.884 35.08 205.884 35.344ZM236.22 32.68L237.468 33.904C237.228 34.264 237.132 34.456 236.868 35.344C235.764 38.992 234.06 42.232 231.948 44.608C229.74 47.128 227.1 49 223.404 50.68C222.732 49.48 222.42 49.072 221.364 48.16C223.764 47.2 225.108 46.48 226.62 45.352C230.052 42.784 232.308 39.52 233.628 35.224L226.404 35.32C224.94 37.672 223.068 39.736 220.788 41.488C220.068 40.504 219.708 40.192 218.46 39.424C221.196 37.552 222.924 35.632 224.676 32.464C225.42 31.096 225.804 30.136 225.9 29.272L229.188 29.944C228.996 30.184 228.996 30.208 228.708 30.808C228.276 31.768 228.108 32.128 227.772 32.752C228.036 32.728 228.42 32.728 228.924 32.704L234.18 32.632C234.804 32.632 235.116 32.608 235.38 32.56C234.9 31.504 234.396 30.664 233.724 29.8L235.644 29.128C236.532 30.232 236.94 30.928 237.492 32.224L236.22 32.68ZM240.42 31.288L238.5 32.08C237.996 30.976 237.42 29.968 236.7 29.032L238.572 28.312C239.412 29.344 239.892 30.136 240.42 31.288Z" fill="#2BA754"/>
<path d="M104.683 12.447V11.056C104.241 11.147 104.007 11.186 103.331 11.29C103.266 10.939 103.123 10.614 102.824 10.094C104.267 9.925 105.229 9.691 106.23 9.275C106.425 9.197 106.62 9.093 106.789 8.976L107.595 10.107C107.465 10.159 107.452 10.172 107.257 10.263C106.815 10.445 106.503 10.562 106.035 10.705V12.447H106.438C106.867 12.447 107.101 12.434 107.348 12.395V13.747C107.088 13.708 106.854 13.695 106.438 13.695H106.074C106.1 13.76 106.1 13.76 106.165 13.877C106.555 14.735 106.867 15.19 107.543 15.879L107.426 16.113C107.192 16.555 107.153 16.646 106.958 17.127C106.503 16.542 106.399 16.36 105.957 15.411C105.996 15.723 106.035 16.477 106.035 16.893V19.493C106.035 20.247 106.048 20.663 106.113 21.092H104.605C104.657 20.637 104.683 20.221 104.683 19.493V17.244C104.683 16.997 104.735 15.97 104.761 15.645C104.41 16.802 103.942 17.699 103.188 18.635C102.967 18.011 102.824 17.699 102.525 17.283C103.071 16.646 103.37 16.191 103.747 15.502C104.033 14.969 104.358 14.189 104.501 13.695H103.851C103.344 13.695 103.097 13.708 102.811 13.76V12.382C103.11 12.434 103.344 12.447 103.851 12.447H104.683ZM108.739 11.68H111.235C111.755 10.718 111.989 10.12 112.288 9.041L113.731 9.509C113.133 10.822 113.003 11.095 112.652 11.68H113.055C113.51 11.68 113.77 11.667 114.134 11.628C114.095 11.94 114.082 12.148 114.082 12.538V14.93C114.082 15.32 114.095 15.58 114.134 15.892C113.783 15.853 113.471 15.84 113.055 15.84H112.47V19.376C112.47 19.623 112.535 19.649 113.029 19.649C113.562 19.649 113.588 19.584 113.614 17.79C114.108 18.115 114.446 18.284 114.836 18.375C114.745 19.792 114.667 20.195 114.433 20.507C114.186 20.858 113.77 20.949 112.548 20.949C111.43 20.949 111.118 20.702 111.118 19.844V15.84H110.299C110.195 17.257 110.052 17.972 109.688 18.778C109.194 19.883 108.57 20.533 107.426 21.157C107.14 20.663 106.958 20.442 106.464 20.013C108.141 19.246 108.921 17.92 108.921 15.84H108.726C108.31 15.84 108.05 15.853 107.699 15.892C107.725 15.593 107.738 15.281 107.738 14.917V12.577C107.738 12.265 107.725 11.927 107.699 11.628C108.076 11.667 108.284 11.68 108.739 11.68ZM109.038 12.928V14.566H112.691V12.928H109.038ZM110.39 11.043L109.116 11.615C108.713 10.653 108.453 10.159 108.05 9.613L109.311 9.028C109.805 9.782 110.091 10.328 110.39 11.043ZM123.65 19.389V18.05H122.207C121.466 18.05 121.193 18.063 120.855 18.102V16.776C121.18 16.828 121.44 16.841 122.194 16.841H123.65V15.775H122.415C121.544 15.775 121.245 15.788 120.855 15.814C120.881 15.515 120.881 15.515 120.907 14.202V11.264C120.907 10.38 120.894 9.951 120.842 9.522C121.336 9.574 121.752 9.587 122.597 9.587H126.185C127.147 9.587 127.537 9.574 127.862 9.522C127.823 9.899 127.81 10.51 127.81 11.303V14.072C127.81 14.982 127.823 15.437 127.862 15.814C127.433 15.775 127.225 15.775 126.445 15.775H124.95V16.841H126.614C127.329 16.841 127.615 16.828 127.992 16.776V18.115C127.615 18.063 127.29 18.05 126.627 18.05H124.95V19.389H127.043C127.732 19.389 128.07 19.376 128.421 19.324V20.715C128.005 20.663 127.654 20.65 126.952 20.65H121.479C120.79 20.65 120.452 20.663 120.01 20.715V19.324C120.361 19.376 120.647 19.389 121.323 19.389H123.65ZM123.65 10.848H122.207V12.148H123.65V10.848ZM124.95 10.848V12.148H126.458V10.848H124.95ZM123.65 13.24H122.207V14.553H123.65V13.24ZM124.95 13.24V14.553H126.458V13.24H124.95ZM117.865 10.978H117.371C116.955 10.978 116.721 10.991 116.396 11.043V9.639C116.708 9.691 117.046 9.717 117.579 9.717H119.412C119.932 9.717 120.244 9.704 120.569 9.639V11.03C120.244 10.991 119.971 10.978 119.607 10.978H119.217V13.513H119.516C119.854 13.513 120.049 13.5 120.335 13.448V14.774C120.075 14.735 119.815 14.722 119.516 14.722H119.217V17.283C119.763 17.049 119.919 16.984 120.491 16.698L120.53 18.076C119.399 18.635 118.892 18.856 116.877 19.675C116.812 19.701 116.747 19.727 116.617 19.779L116.266 18.31C116.708 18.219 116.981 18.128 117.865 17.816V14.722H117.436C117.059 14.722 116.851 14.735 116.552 14.787V13.448C116.864 13.5 117.059 13.513 117.462 13.513H117.865V10.978ZM135.116 12.889V10.627C135.116 10.016 135.09 9.613 135.038 9.145H136.767C136.715 9.613 136.689 10.029 136.689 10.64V12.889H139.991C140.628 12.889 141.213 12.863 141.798 12.798V14.41C141.213 14.345 140.719 14.319 140.043 14.319H136.689V18.986H139.445C140.238 18.986 140.615 18.973 141.083 18.908V20.481C140.602 20.416 140.199 20.403 139.458 20.403H132.516C131.788 20.403 131.346 20.429 130.878 20.481V18.908C131.307 18.96 131.723 18.986 132.503 18.986H135.116V14.319H132.1C131.385 14.319 130.839 14.345 130.202 14.41V12.798C130.774 12.863 131.333 12.889 132.1 12.889H135.116ZM147.011 20.663L146.725 19.155C146.933 19.168 147.037 19.168 147.167 19.168C147.375 19.168 147.687 19.155 148.129 19.129C148.792 17.972 149.325 16.789 149.741 15.541H148.337C147.804 15.541 147.349 15.567 146.933 15.619V14.163C147.31 14.215 147.739 14.241 148.35 14.241H150.378V12.291H148.818C148.311 12.291 147.869 12.317 147.453 12.356V10.926C147.791 10.978 148.233 11.004 148.831 11.004H150.378V10.432C150.378 9.73 150.365 9.405 150.3 9.067H151.873C151.808 9.457 151.795 9.756 151.795 10.432V11.004H153.875C154.434 11.004 154.811 10.978 155.201 10.926V12.356C154.837 12.304 154.486 12.291 153.888 12.291H151.795V14.241H154.291C154.837 14.241 155.253 14.215 155.656 14.163V15.619C155.279 15.567 154.811 15.541 154.304 15.541H151.249C151.171 15.775 151.171 15.775 150.989 16.256C150.729 16.945 150.365 17.751 149.845 18.778L149.728 19.025C151.483 18.869 152.341 18.765 153.186 18.596C152.783 17.92 152.536 17.569 151.912 16.75L153.069 16.152C154.161 17.569 154.473 18.05 155.695 20.156L154.421 20.923C154.122 20.325 154.031 20.13 153.823 19.727C151.912 20.091 151.444 20.156 149.117 20.403C147.7 20.546 147.427 20.585 147.011 20.663ZM144.19 10.146L145.074 9.145C145.984 9.704 146.491 10.081 147.31 10.809L146.426 11.94C145.711 11.238 145.074 10.718 144.19 10.146ZM143.631 13.357L144.437 12.317C145.334 12.824 145.815 13.162 146.764 13.903L145.945 15.086C145.1 14.319 144.528 13.903 143.631 13.357ZM145.594 15.944L146.751 16.763C146.296 17.959 146.01 18.648 145.49 19.727C145.256 20.208 145.256 20.208 145.087 20.611C144.996 20.819 144.996 20.819 144.931 20.936L143.683 19.844C144.138 19.35 144.931 17.738 145.594 15.944ZM162.429 9.249H164.106C164.054 9.47 164.015 10.12 164.015 10.588C164.015 12.681 164.353 14.059 165.289 15.71C165.835 16.685 166.42 17.374 167.343 18.18C168.11 18.856 168.5 19.129 169.358 19.584C168.864 20.091 168.656 20.403 168.344 21.027C166.758 19.922 165.965 19.181 165.042 17.959C164.249 16.906 163.755 15.905 163.313 14.41C163.066 15.45 162.832 16.048 162.299 17.036C161.779 17.985 161.22 18.687 160.297 19.532C159.621 20.156 159.192 20.468 158.282 21.027C157.983 20.429 157.736 20.104 157.268 19.688C158.594 18.986 159.283 18.453 160.102 17.517C161.779 15.593 162.481 13.461 162.481 10.341C162.481 9.834 162.468 9.6 162.429 9.249Z" fill="#2BA754"/>
<mask id="mask0_3453_1426" style="mask-type:alpha" maskUnits="userSpaceOnUse" x="0" y="0" width="87" height="60">
<rect width="87" height="60" fill="#D9D9D9"/>
</mask>
<g mask="url(#mask0_3453_1426)">
<path d="M53.3825 11.2005C52.1895 11.6258 51.0469 12.139 49.9545 12.7402C45.5909 7.48841 40.0964 4.26369 33.4711 3.066C28.0024 2.07671 22.2078 2.91359 17.2543 5.27603C5.785 10.7489 -0.377967 23.5053 2.54757 35.9342C2.55698 35.9718 2.58144 35.9916 2.62096 35.9935C10.7893 36.239 17.8244 31.2982 20.1841 23.4883C20.3177 23.048 20.4461 22.7554 20.5693 22.6105C21.1084 21.9783 22.2995 22.2422 22.5282 23.024C22.6044 23.2865 22.578 23.6384 22.4491 24.0796C19.9427 32.6686 12.3064 38.26 3.41126 38.3827C3.39295 38.383 3.37498 38.3876 3.35882 38.3963C3.34266 38.4049 3.32877 38.4173 3.31831 38.4325C3.30784 38.4476 3.30108 38.4651 3.2986 38.4834C3.29611 38.5018 3.29796 38.5205 3.304 38.538C8.90952 54.3624 27.0992 61.4963 41.9273 53.3731C42.1795 53.2358 42.7736 52.89 43.7097 52.3358C44.596 53.3115 45.5778 54.186 46.655 54.9594C39.2572 59.8085 30.4735 61.2451 21.9594 58.894C8.52284 55.1838 -0.499336 42.6476 0.0214184 28.8088C0.711523 10.4441 17.9176 -3.0645 35.9817 0.603357C42.8729 2.00332 48.9328 5.76997 53.3825 11.2005Z" fill="#018F5F"/>
<path d="M17.4079 15.9268C19.3213 15.9268 20.8725 14.3757 20.8725 12.4622C20.8725 10.5487 19.3213 8.99756 17.4079 8.99756C15.4944 8.99756 13.9432 10.5487 13.9432 12.4622C13.9432 14.3757 15.4944 15.9268 17.4079 15.9268Z" fill="#018F5F"/>
<path d="M54.9897 13.4016C63.3486 26.2652 61.0398 42.8814 49.404 52.89C49.3635 52.8985 49.3287 52.891 49.2995 52.8674C48.2317 51.9849 47.2866 51.1499 46.4643 50.3625C46.4464 50.3455 46.4365 50.3244 46.4347 50.299C46.4337 50.2858 46.4314 50.2721 46.4276 50.258C56.7185 41.4221 58.9412 26.3894 51.5222 14.9582L54.9897 13.4016Z" fill="#018F5F"/>
<path d="M72.3317 23.1073C73.9326 23.1073 75.2304 21.8095 75.2304 20.2085C75.2304 18.6076 73.9326 17.3098 72.3317 17.3098C70.7308 17.3098 69.433 18.6076 69.433 20.2085C69.433 21.8095 70.7308 23.1073 72.3317 23.1073Z" fill="#2BA754"/>
<path d="M46.6547 54.959C45.5774 54.1856 44.5957 53.3111 43.7094 52.3355C32.2754 40.1507 35.1416 20.8235 49.9542 12.7398C51.0465 12.1386 52.1892 11.6254 53.3821 11.2001C53.3953 11.2077 53.4061 11.2142 53.4146 11.2199C53.4249 11.2265 53.4358 11.2279 53.4471 11.2241C67.7897 6.16759 82.9452 14.8412 86.304 29.4364C88.5874 39.3618 84.3395 49.8206 76.0963 55.5447C67.0982 61.7923 55.4652 61.3421 46.6547 54.959ZM54.9896 13.4017L51.5221 14.9583C38.8688 22.4083 36.1563 39.335 46.2934 50.1918C46.3367 50.2379 46.3814 50.26 46.4275 50.2581C46.4312 50.2722 46.4336 50.2859 46.4345 50.299C46.4364 50.3244 46.4463 50.3456 46.4642 50.3625C47.2864 51.15 48.2315 51.985 49.2994 52.8675C49.3285 52.891 49.3634 52.8986 49.4038 52.8901C49.3916 52.9099 49.3991 52.9296 49.4264 52.9494C61.8864 61.8177 79.1037 56.4451 84.1447 41.9557C84.1598 41.9133 84.1447 41.8922 84.0996 41.8922C80.101 41.8762 76.6053 40.6517 73.6125 38.2187C71.0229 36.1131 68.7521 32.9279 68.0423 29.6156C67.887 28.8945 68.388 28.2933 69.136 28.4288C69.8219 28.5544 69.8925 29.0525 70.0773 29.6382C72.0446 35.8223 78.0156 40.3087 84.6528 39.8868C84.6744 39.8856 84.6951 39.8774 84.7119 39.8634C84.7286 39.8495 84.7406 39.8304 84.7459 39.8092C86.8967 31.319 83.5337 22.2178 76.6961 16.8268C72.6157 13.6091 67.88 11.997 62.489 11.9904C60.0663 11.9867 57.5665 12.4571 54.9896 13.4017Z" fill="#2BA754"/>
</g>
</svg>
