<svg width="87" height="60" viewBox="0 0 87 60" fill="none" xmlns="http://www.w3.org/2000/svg">
<mask id="mask0_185_1207" style="mask-type:alpha" maskUnits="userSpaceOnUse" x="0" y="0" width="87" height="60">
<rect width="87" height="60" fill="#D9D9D9"/>
</mask>
<g mask="url(#mask0_185_1207)">
<path d="M53.3825 10.0886C52.1895 10.5137 51.0469 11.0266 49.9545 11.6275C45.5909 6.37847 40.0964 3.15541 33.4711 1.95834C28.0024 0.969559 22.2078 1.806 17.2543 4.16723C5.785 9.63726 -0.377967 22.387 2.54757 34.8096C2.55698 34.8472 2.58144 34.8669 2.62096 34.8688C10.7893 35.1143 17.8244 30.176 20.1841 22.3701C20.3177 21.93 20.4461 21.6376 20.5693 21.4928C21.1084 20.8608 22.2995 21.1246 22.5282 21.9061C22.6044 22.1684 22.578 22.5201 22.4491 22.9611C19.9427 31.5456 12.3064 37.1341 3.41126 37.2568C3.39295 37.2571 3.37498 37.2617 3.35882 37.2704C3.34266 37.279 3.32877 37.2914 3.31831 37.3066C3.30784 37.3217 3.30108 37.3392 3.2986 37.3575C3.29611 37.3758 3.29796 37.3945 3.304 37.412C8.90952 53.2283 27.0992 60.3585 41.9273 52.2395C42.1795 52.1022 42.7736 51.7566 43.7097 51.2028C44.596 52.1779 45.5778 53.052 46.655 53.8249C39.2572 58.6715 30.4735 60.1074 21.9594 57.7575C8.52284 54.0492 -0.499336 41.5195 0.0214184 27.6878C0.711523 9.33259 17.9176 -4.169 35.9817 -0.503034C42.8729 0.896212 48.9328 4.66092 53.3825 10.0886Z" fill="#F7F5F4"/>
<path d="M17.408 14.8124C19.3215 14.8124 20.8726 13.262 20.8726 11.3496C20.8726 9.43709 19.3215 7.88672 17.408 7.88672C15.4945 7.88672 13.9434 9.43709 13.9434 11.3496C13.9434 13.262 15.4945 14.8124 17.408 14.8124Z" fill="#F7F5F4"/>
<path d="M54.9898 12.2891C63.3487 25.146 61.0399 41.7536 49.4041 51.7571C49.3636 51.7656 49.3288 51.758 49.2996 51.7345C48.2318 50.8525 47.2867 50.0179 46.4644 49.2308C46.4465 49.2139 46.4367 49.1927 46.4348 49.1674C46.4338 49.1542 46.4315 49.1406 46.4277 49.1265C56.7186 40.2951 58.9414 25.2702 51.5224 13.8449L54.9898 12.2891Z" fill="#F7F5F4"/>
<path d="M72.3313 21.9893C73.9323 21.9893 75.2301 20.6921 75.2301 19.0921C75.2301 17.492 73.9323 16.1948 72.3313 16.1948C70.7304 16.1948 69.4326 17.492 69.4326 19.0921C69.4326 20.6921 70.7304 21.9893 72.3313 21.9893Z" fill="#F7F5F4"/>
<path d="M46.6547 53.825C45.5774 53.052 44.5957 52.1779 43.7094 51.2028C32.2754 39.0243 35.1416 19.7071 49.9542 11.6276C51.0465 11.0267 52.1892 10.5137 53.3821 10.0887C53.3953 10.0962 53.4061 10.1028 53.4146 10.1084C53.4249 10.115 53.4358 10.1164 53.4471 10.1127C67.7897 5.05873 82.9452 13.7278 86.304 28.3155C88.5874 38.2358 84.3395 48.6892 76.0963 54.4103C67.0982 60.6548 55.4652 60.2048 46.6547 53.825ZM54.9896 12.2891L51.5221 13.8449C38.8688 21.2911 36.1563 38.209 46.2934 49.0602C46.3367 49.1063 46.3814 49.1284 46.4275 49.1265C46.4312 49.1406 46.4336 49.1542 46.4345 49.1674C46.4364 49.1928 46.4463 49.214 46.4642 49.2309C47.2864 50.018 48.2315 50.8525 49.2994 51.7346C49.3285 51.7581 49.3634 51.7656 49.4038 51.7571C49.3916 51.7769 49.3991 51.7966 49.4264 51.8164C61.8864 60.6801 79.1037 55.3103 84.1447 40.8284C84.1598 40.786 84.1447 40.7649 84.0996 40.7649C80.101 40.7489 76.6053 39.525 73.6125 37.0933C71.0229 34.9888 68.7522 31.8052 68.0423 28.4947C67.8871 27.7739 68.388 27.173 69.136 27.3084C69.8219 27.434 69.8925 27.9319 70.0773 28.5172C72.0446 34.6982 78.0157 39.1823 84.6528 38.7605C84.6744 38.7593 84.6951 38.7511 84.7119 38.7372C84.7287 38.7232 84.7406 38.7042 84.7459 38.6829C86.8967 30.1972 83.5337 21.1007 76.6961 15.7125C72.6157 12.4965 67.88 10.8852 62.489 10.8786C60.0663 10.8748 57.5665 11.345 54.9896 12.2891Z" fill="#F7F5F4"/>
</g>
</svg>
