<svg width="261" height="67" viewBox="0 0 261 67" fill="none" xmlns="http://www.w3.org/2000/svg">
<mask id="mask0_3147_16694" style="mask-type:alpha" maskUnits="userSpaceOnUse" x="0" y="0" width="261" height="67">
<rect width="261" height="67" fill="#D9D9D9"/>
</mask>
<g mask="url(#mask0_3147_16694)">
<path d="M8.11632 23.9541C6.90604 24.5242 5.92583 25.0089 5.17568 25.4081C4.42553 25.8073 3.72665 26.2658 3.07906 26.7836C2.49098 27.3509 1.88862 27.3702 1.27199 26.8416C0.810686 26.4085 0.827208 25.995 1.32156 25.6013C1.9628 25.2122 2.80688 24.7402 3.8538 24.1852C4.91887 23.6286 6.34171 22.8832 8.12231 21.9489C8.15873 21.1583 8.158 20.3619 8.12012 19.5599C8.09872 18.7381 7.98571 17.9156 7.78111 17.0924C6.87889 18.2198 6.20971 19.0966 5.77358 19.7229C5.33745 20.3493 4.83293 21.0278 4.26001 21.7584C4.10379 22.0475 3.86569 22.2435 3.54572 22.3465C3.22405 22.4313 2.98556 22.426 2.83024 22.3305C2.69307 22.2334 2.6226 22.066 2.61883 21.8284C2.63322 21.5891 2.97523 20.9348 3.64485 19.8657C4.31448 18.7966 5.19413 17.5249 6.28382 16.0506C7.3735 14.5764 8.23287 13.4805 8.86192 12.763C9.55166 12.6989 9.99124 12.9968 10.1807 13.6566C10.257 13.8875 10.2583 14.0979 10.1844 14.2878C10.127 14.4579 10.0043 14.6158 9.81645 14.7614C9.25623 15.2345 8.85432 15.638 8.61072 15.9718C8.91968 16.1445 9.15856 16.3512 9.32737 16.5918C9.51265 16.8126 9.62889 17.1771 9.67609 17.6853C9.74144 18.1919 9.77134 18.7109 9.76577 19.2423C9.75852 19.7556 9.77805 20.4586 9.82435 21.3514C10.0354 21.2586 10.3001 21.1516 10.6184 21.0305C10.9548 20.9077 11.2451 20.7801 11.4891 20.6476C11.7018 20.5729 11.908 20.5263 12.1077 20.5077C12.3057 20.471 12.5137 20.5432 12.7319 20.7244C12.9569 20.9781 13.0845 21.2683 13.1149 21.595C13.0938 21.7618 13.023 21.8873 12.9027 21.9717C12.7807 22.038 12.657 22.0861 12.5317 22.116C11.8622 22.3979 10.9816 22.7726 9.88993 23.2402C9.88177 24.138 9.88166 24.9252 9.88958 25.6019C9.89335 25.8395 9.89542 26.059 9.89582 26.2604C10.5618 26.7294 11.2714 27.0755 12.0244 27.2984C12.7955 27.5197 13.3132 27.673 13.5775 27.7583C13.6703 27.9694 13.6988 28.1773 13.6629 28.382C13.6253 28.5686 13.5282 28.7058 13.3715 28.7935C13.2149 28.8813 13.0541 28.9237 12.889 28.9207C12.4319 28.9266 11.9615 28.8879 11.4777 28.8047C11.0105 28.7016 10.4845 28.5582 9.89994 28.3745C9.84032 29.1124 9.79418 29.9954 9.76153 31.0237C9.74702 32.0502 9.75087 33.1758 9.77306 34.4003C9.82791 34.5966 9.82007 34.8079 9.74955 35.0341C9.67902 35.2604 9.511 35.4225 9.24547 35.5203C9.01625 35.6149 8.77607 35.5914 8.52494 35.45C8.25902 35.3465 8.05158 35.1827 7.90261 34.9585C7.77347 34.7508 7.72349 34.5083 7.75265 34.231C7.91315 33.5936 8.00233 32.7798 8.0202 31.7895C8.03639 30.7811 8.08155 29.3947 8.15567 27.6303C7.13056 29.2084 6.3801 30.2942 5.90429 30.8876C5.44663 31.4793 4.9248 32.1686 4.3388 32.9553C3.98083 33.0435 3.71427 33.0316 3.53911 32.9197C3.36395 32.8078 3.23164 32.6645 3.14218 32.4897C3.07087 32.3133 3.08039 32.1202 3.17076 31.9104C3.29573 31.6791 3.68247 31.1123 4.33097 30.2099C4.63875 29.7785 4.96215 29.3183 5.30118 28.8291C5.67314 28.3002 6.05903 27.7243 6.45886 27.1013C7.24711 25.9297 7.78521 25.1199 8.07316 24.6721L8.11632 23.9541ZM23.3586 27.8111C22.3767 28.6712 21.1421 29.4724 19.6549 30.2146C18.1841 30.9371 16.6284 31.6308 14.9875 32.2958C14.4598 32.5279 14.0033 32.4422 13.618 32.0386C13.1732 31.5856 13.1268 31.0864 13.4789 30.5411C14.4593 28.8756 15.4418 27.036 16.4265 25.0222C17.4111 23.0085 18.1102 21.3691 18.5236 20.1041C18.5629 19.9356 18.6319 19.7919 18.7307 19.6729C18.8477 19.5522 18.9787 19.4851 19.124 19.4716C19.5878 19.5384 19.9975 19.7109 20.3529 19.9891C20.6753 20.307 20.7263 20.6593 20.5059 21.0459C19.876 22.1479 19.1542 23.5423 18.3405 25.2289C17.5269 26.9155 16.7443 28.4437 15.9927 29.8133C16.6196 29.6636 17.2513 29.4676 17.8879 29.2254C18.5426 28.9815 19.4206 28.5796 20.522 28.0196C21.6415 27.4579 22.3381 27.0728 22.6116 26.8644C22.3567 26.4853 22.0854 26.126 21.7975 25.7866C21.7064 25.5937 21.6433 25.4073 21.6083 25.2275C21.5898 25.0278 21.6753 24.8643 21.8648 24.7368C22.178 24.5613 22.4923 24.4954 22.8076 24.5394C23.166 24.6526 23.4593 24.8542 23.6876 25.1442C24.446 26.4102 25.1413 27.4899 25.7735 28.3832C26.4056 29.2764 26.7544 29.9763 26.8198 30.4829C26.8269 30.7568 26.7019 30.9881 26.4448 31.1768C26.1561 31.2219 25.8655 31.1482 25.573 30.9557C25.3101 30.6872 24.9982 30.2859 24.6373 29.7519C24.2947 29.2162 23.8684 28.5692 23.3586 27.8111ZM34.3268 17.5928C33.878 17.6894 33.4861 17.7075 33.151 17.6471C32.7728 17.5174 32.5043 17.3867 32.3456 17.255C32.2051 17.1216 32.0958 16.9304 32.0177 16.6813C31.9578 16.4306 32.1398 16.2215 32.5636 16.0539C32.9777 15.9789 33.3836 15.9137 33.7812 15.8585C34.1789 15.8032 34.6333 15.6695 35.1445 15.4572C35.3076 14.4535 35.4054 13.8311 35.4379 13.5901C35.5709 13.2482 35.7554 13.0663 35.9914 13.0444C36.1184 13.0326 36.2588 13.0653 36.4124 13.1426C36.9016 13.4816 37.2194 13.9464 37.3658 14.5369C38.0534 14.2534 38.6685 13.9766 39.2109 13.7065C39.6297 13.4845 39.9267 13.4295 40.1018 13.5414C40.277 13.6532 40.4507 13.8477 40.6229 14.1246C40.8115 14.3817 40.887 14.6035 40.8494 14.7901C40.8283 14.9568 40.5919 15.171 40.1402 15.4326C39.3339 15.8187 38.7015 16.1063 38.2431 16.2954C37.8011 16.4646 37.2099 16.7026 36.4695 17.0093C36.1954 17.8037 35.9486 18.5955 35.729 19.3849C35.5094 20.1742 35.3021 21.3926 35.1073 23.04C34.9289 24.6677 34.9011 26.0433 35.0238 27.167C35.1629 28.2709 35.4916 29.2473 36.0098 30.0962C36.1676 30.6125 36.169 30.9236 36.0141 31.0295C35.8773 31.1337 35.7009 31.205 35.4847 31.2434C35.2884 31.2983 35.0582 31.283 34.794 31.1977C34.5314 31.1306 34.3214 30.9395 34.164 30.6246C33.7493 29.5098 33.4903 28.2981 33.387 26.9895C33.2821 25.6628 33.3083 24.269 33.4655 22.8081C33.6392 21.3273 33.8152 20.1668 33.9935 19.3264C34.17 18.4678 34.2811 17.8899 34.3268 17.5928ZM47.0969 19.3726C47.0035 19.7474 46.7637 19.9253 46.3775 19.9062C45.1086 20.0424 43.9186 20.4367 42.8075 21.0891C42.415 21.1988 42.0395 21.1971 41.6811 21.0839C41.3409 20.969 41.1259 20.7235 41.036 20.3474C41.0454 20.0536 41.1777 19.8033 41.4331 19.5965C42.7359 19.0362 44.0536 18.5385 45.3862 18.1035C45.886 17.9655 46.3161 18.0629 46.6766 18.3955C47.0353 18.7101 47.1754 19.0357 47.0969 19.3726ZM42.7893 24.4411C43.1477 24.5543 43.4549 24.7088 43.7111 24.9047C44.7288 25.4143 45.5565 25.8501 46.1942 26.2119C46.8303 26.5556 47.2748 26.8073 47.5276 26.9669C47.926 27.3143 48.0661 27.64 47.9479 27.9439C47.8296 28.2478 47.6914 28.4346 47.533 28.5042C47.3747 28.5738 47.0447 28.5679 46.5428 28.4863C46.2106 28.2609 45.7446 27.9746 45.1449 27.6275C44.5632 27.2788 43.7752 26.876 42.7808 26.4191C42.3199 26.1873 42.0468 25.8099 41.9616 25.2869C41.9258 24.7044 42.2017 24.4224 42.7893 24.4411ZM60.2308 15.3242C58.9559 15.7905 58.0044 16.1901 57.3763 16.523C56.7465 16.8378 56.3657 17.0746 56.234 17.2333C56.1187 17.3721 55.9794 17.4491 55.816 17.4643C55.6691 17.4597 55.4735 17.4229 55.2291 17.3541C54.7796 17.048 54.5559 16.611 54.5581 16.0433C54.5725 15.804 54.6844 15.6288 54.8938 15.5178C55.1015 15.3887 55.5319 15.1931 56.1849 14.9311C56.8379 14.669 57.6246 14.3671 58.5449 14.0253C59.4816 13.6637 60.1536 13.4091 60.561 13.2614C60.618 12.89 60.6833 12.5086 60.7568 12.1173C60.8484 11.7243 60.935 11.2769 61.0166 10.775C61.077 10.4399 61.24 10.2234 61.5055 10.1255C61.5418 10.1221 61.5872 10.1179 61.6416 10.1128C61.8413 10.0943 62.042 10.1855 62.2437 10.3864C62.4868 10.6385 62.6567 10.9889 62.7533 11.4376C62.749 11.7858 62.7143 12.201 62.6492 12.683C63.4146 12.4471 64.1353 12.2246 64.8116 12.0153C65.506 11.8044 66.2367 11.59 67.0037 11.3723C67.3815 11.3006 67.715 11.3429 68.0041 11.4991C68.2886 11.8022 68.446 12.1172 68.4763 12.4439C68.5248 12.7689 68.479 12.9654 68.3388 13.0333C68.1987 13.1013 67.9933 13.157 67.7227 13.2004C66.9422 13.2729 65.9293 13.5043 64.6841 13.8945C63.4552 14.265 62.619 14.5257 62.1753 14.6768C62.0871 15.106 61.9827 15.7565 61.8623 16.6282C61.7418 17.4998 61.6117 18.4639 61.4718 19.5204C61.3303 20.5588 61.2582 21.2612 61.2556 21.6276C61.7715 21.2684 62.4541 20.9304 63.3034 20.6135C64.1692 20.2768 65.0147 20.1159 65.84 20.1308C66.6652 20.1457 67.3009 20.288 67.747 20.5578C68.2113 20.8259 68.5223 21.2181 68.6801 21.7344C68.8561 22.249 68.9396 22.7538 68.9306 23.2489C68.8545 24.0066 68.4692 24.8846 67.7747 25.8828C67.0967 26.8611 66.2364 27.9479 65.1941 29.1432C64.9471 29.4407 64.732 29.5889 64.5488 29.5876C64.3673 29.6044 64.0617 29.4681 63.632 29.1784C63.4122 28.9792 63.325 28.7309 63.3707 28.4338C63.4361 28.1531 63.5784 27.911 63.7975 27.7076C64.4599 27.1518 64.9878 26.6267 65.3813 26.1325C65.7731 25.6201 66.1541 25.0904 66.5244 24.5434C66.9111 23.9766 67.1833 23.457 67.3408 22.9847C67.4801 22.514 67.5133 22.1814 67.4403 21.9868C67.3673 21.7922 66.9075 21.6702 66.0607 21.6207C65.214 21.5711 64.399 21.7658 63.616 22.2047C62.8493 22.6238 62.3202 22.9384 62.0285 23.1485C61.7731 23.3553 61.5134 23.5168 61.2496 23.6328C60.9858 23.7488 60.7243 23.7914 60.4651 23.7606C59.8092 23.4004 59.483 22.8449 59.4865 22.0939C59.7202 20.0767 59.8871 18.5234 59.9873 17.4339C60.1057 16.3428 60.1868 15.6395 60.2308 15.3242ZM83.8095 19.2308C83.0641 18.6958 82.5127 18.1795 82.1553 17.6818C81.816 17.1824 81.4636 16.3455 81.0982 15.1711C80.7329 13.9968 80.5296 12.5968 80.4885 10.9712C80.4695 10.5702 80.5078 10.2921 80.6032 10.1367C80.6526 10.0772 80.7227 10.0433 80.8134 10.0348C80.9586 10.0213 81.1634 10.0572 81.4276 10.1426C81.8636 10.3034 82.1118 10.6099 82.1721 11.062C82.2374 11.5686 82.2886 12.0215 82.3257 12.4208C82.3611 12.802 82.4834 13.7243 82.6926 15.1878C82.7811 15.7471 83.0472 16.3449 83.4907 16.9811C83.9507 17.5974 84.3696 17.8697 84.7474 17.798C86.1524 16.3677 87.5633 15.0009 88.9801 13.6976C89.458 13.3237 89.8723 13.3493 90.223 13.7744C90.4813 14.1898 90.6478 14.5039 90.7225 14.7166C90.7477 14.9889 90.6838 15.1871 90.5305 15.3112C90.3937 15.4154 90.0328 15.6686 89.4477 16.0708C88.8807 16.4713 88.0957 17.185 87.0926 18.2118C86.106 19.2188 85.3636 20.194 84.8653 21.1374C84.3853 22.079 84.1823 22.9492 84.2565 23.7478C84.5789 24.0657 85.2081 24.2361 86.1439 24.2591C87.0962 24.2622 88.1297 24.0563 89.2446 23.6416C90.3759 23.2069 91.2755 22.8396 91.9433 22.5396C92.2789 22.8014 92.4485 23.0511 92.4523 23.2887C92.456 23.5264 92.383 23.7254 92.2331 23.8858C92.1014 24.0445 91.7751 24.2761 91.2541 24.5808C90.7497 24.8657 89.8822 25.1843 88.6517 25.5365C87.441 25.9053 86.2306 25.9811 85.0204 25.7639C83.7854 25.4759 82.9134 24.7605 82.4045 23.6178C82.1889 23.0703 82.1869 22.4571 82.3984 21.7784C82.6231 21.0435 83.0935 20.1943 83.8095 19.2308ZM101.74 15.8354C102.185 15.7025 102.522 15.5888 102.751 15.4943C102.979 15.3816 103.597 15.1411 104.607 14.7727C105.634 14.4027 106.806 14.0101 108.122 13.5949C109.437 13.1616 110.961 12.718 112.694 12.264C114.426 11.7919 115.824 11.4608 116.886 11.2706C117.965 11.0605 119.053 10.8496 120.15 10.6379C120.277 10.6261 120.447 10.5828 120.66 10.5082C120.874 10.4516 121.036 10.4183 121.145 10.4082C121.236 10.3998 121.348 10.4259 121.482 10.4867C121.739 10.4994 121.893 10.5767 121.943 10.7185C122.009 10.8405 122.13 11.0582 122.305 11.3714C122.375 11.5297 122.427 11.6897 122.46 11.8514C122.511 12.0113 122.468 12.2351 122.33 12.5225C121.941 12.6685 121.627 12.7434 121.39 12.7471C121.012 12.6175 120.62 12.544 120.216 12.5266C119.83 12.5076 119.042 12.5991 117.852 12.8011C116.663 13.0031 115.042 13.3916 112.99 13.9667C110.936 14.5236 109.309 15.0408 108.109 15.5185C106.906 15.978 105.97 16.3396 105.298 16.6033C104.644 16.8472 104.226 17.0783 104.045 17.2965C103.834 17.3893 103.64 17.4714 103.463 17.5427C103.305 17.6123 102.985 17.6146 102.503 17.5495C102.258 17.4807 102.034 17.236 101.831 16.8156C101.645 16.3934 101.615 16.0667 101.74 15.8354ZM138.338 12.3814C138.079 12.5518 137.822 12.7405 137.567 12.9473C137.329 13.1524 137.074 13.3592 136.8 13.5677C136.81 14.0611 136.825 14.5265 136.848 14.9638C136.943 18.946 136.998 21.1195 137.014 21.4842C137.034 21.9034 137.137 22.5163 137.322 23.323C137.337 23.4863 137.288 23.6465 137.174 23.8035C137.062 23.9787 136.917 24.0928 136.739 24.146C136.394 24.178 136.091 24.0689 135.83 23.8185C135.61 23.4179 135.479 22.9998 135.439 22.5642C135.356 20.6862 135.276 18.5425 135.199 16.133C135.205 16.0043 135.202 15.8673 135.188 15.7221C135.131 15.3063 135.066 14.9005 134.993 14.5045C134.658 14.6454 134.299 14.8252 133.917 15.0438C133.534 15.2624 132.771 15.6171 131.626 16.1078C130.975 16.388 130.447 16.2265 130.044 15.6232C129.938 15.4683 129.848 15.2935 129.775 15.0989C129.7 14.8862 129.701 14.6939 129.777 14.5221C129.869 14.3305 129.982 14.1735 130.117 14.0511C131.018 12.9056 131.725 12.0435 132.239 11.4649C132.753 10.8863 133.13 10.4119 133.37 10.0417C132.519 9.75455 131.613 9.46337 130.652 9.16818C130.305 8.98071 130.059 8.69237 129.913 8.30316C129.724 7.84472 129.806 7.44352 130.158 7.09955C131.191 5.99672 132.095 4.98821 132.87 4.07403C133.644 3.1417 134.283 2.33176 134.787 1.64421C135.084 1.68985 135.365 1.76439 135.631 1.86785C136.269 2.22969 136.498 2.62946 136.319 3.06716C135.451 3.97162 134.719 4.75369 134.121 5.41336C133.541 6.07135 133.086 6.58964 132.755 6.96822C132.442 7.34512 132.239 7.62031 132.145 7.79379C132.31 7.99811 132.656 8.17651 133.183 8.32896C133.708 8.46327 134.181 8.52919 134.602 8.52672C135.328 7.67205 136.027 6.9115 136.697 6.24509C136.829 6.08639 136.98 5.94416 137.152 5.8184C137.34 5.6728 137.55 5.67156 137.783 5.81469C138.188 6.0334 138.474 6.35467 138.641 6.7785C138.734 6.98957 138.739 7.14469 138.657 7.24388C138.591 7.32323 138.472 7.41671 138.299 7.52432C137.854 7.85857 137.374 8.30594 136.858 8.86642C136.359 9.40708 136.047 9.79305 135.922 10.0244C135.797 10.2557 135.589 10.4764 135.297 10.6866C135.004 10.8786 134.642 11.2234 134.212 11.721C133.782 12.2186 133.261 12.9078 132.647 13.7887C133.334 13.5051 133.748 13.3294 133.888 13.2614C134.027 13.1754 134.306 13.0304 134.727 12.8266C135.165 12.6211 135.602 12.3974 136.038 12.1556C136.471 11.8957 136.877 11.6382 137.257 11.3833C137.286 11.106 137.322 10.8097 137.366 10.4944C137.446 9.97434 137.714 9.803 138.17 9.98036C138.52 10.2041 138.886 10.4997 139.268 10.867C139.65 11.2342 140.022 11.5933 140.384 11.9441L140.712 12.2158C140.951 12.4315 141.17 12.6217 141.369 12.7864C141.688 13.068 141.745 13.3922 141.542 13.759C141.281 14.1127 140.941 14.1901 140.52 13.9912C140.216 13.8729 139.886 13.6747 139.531 13.3965L139.322 13.2236C139.025 12.9766 138.697 12.6959 138.338 12.3814ZM134.178 18.4522C133.652 19.2883 133.252 19.9113 132.979 20.3211C132.724 20.7293 132.194 21.822 131.388 23.5994C131.045 23.6496 130.756 23.5941 130.522 23.4328C130.305 23.2698 130.155 23.0366 130.072 22.7331C130.123 22.289 130.267 21.7722 130.505 21.1825C130.73 20.649 131.23 19.7238 132.005 18.4069C132.082 18.2533 132.168 18.0988 132.264 17.9435C132.365 17.6594 132.571 17.5031 132.879 17.4744C133.023 17.4428 133.161 17.4483 133.293 17.4909C133.461 17.5302 133.624 17.6066 133.781 17.7202C134.149 17.9423 134.282 18.1863 134.178 18.4522ZM142.049 17.4466C142.048 17.8311 141.953 18.0871 141.763 18.2146C141.59 18.3222 141.221 18.2924 140.656 18.1252C140.28 18.0137 139.422 17.6448 138.082 17.0186C137.893 16.7615 137.807 16.4217 137.823 15.9992C137.855 15.5568 138.066 15.3724 138.458 15.4459C139.908 16.0801 140.819 16.5264 141.191 16.7848C141.52 16.974 141.806 17.1946 142.049 17.4466ZM143.344 21.3357C142.839 21.4192 142.469 21.3803 142.234 21.219C142 21.0578 141.861 20.8418 141.817 20.5712C141.794 20.3171 141.843 19.9647 141.966 19.5139C142.089 19.0631 142.591 17.8631 143.472 15.9139C144.371 13.963 144.994 12.5961 145.343 11.8132C145.708 11.0104 145.952 10.4842 146.075 10.2348C145.809 10.3327 145.394 10.4903 144.828 10.7076C144.281 10.9232 143.646 11.2842 142.924 11.7906C142.658 11.8885 142.404 11.9121 142.162 11.8614C141.955 11.8074 141.756 11.7343 141.565 11.6423L141.505 11.5929C141.292 11.4662 141.136 11.2611 141.036 10.9774C141.003 10.8157 141.054 10.6737 141.189 10.5513C141.34 10.4091 141.478 10.3139 141.602 10.2658C142.889 9.7434 144.205 9.22756 145.55 8.71826C145.523 8.0433 145.516 7.37573 145.528 6.71555C145.539 6.03722 145.556 5.33989 145.581 4.62357C144.958 4.80963 144.357 5.03938 143.778 5.31283C143.288 5.55969 142.947 5.62803 142.753 5.51783C142.578 5.40594 142.4 5.25775 142.218 5.07326C142.034 4.87062 141.913 4.65301 141.855 4.42042C141.991 4.11483 142.193 3.92216 142.46 3.84242C143.292 3.52723 143.885 3.31647 144.242 3.21015C144.598 3.10383 145.032 2.94454 145.543 2.73229C145.538 2.09195 145.552 1.44992 145.584 0.806205C145.829 0.691849 146.079 0.62287 146.333 0.599268C146.586 0.557516 146.803 0.628885 146.985 0.813374C147.165 0.979712 147.294 1.18741 147.372 1.43647C147.467 1.66569 147.542 1.88752 147.599 2.10196C148.744 1.81256 149.435 1.66597 149.673 1.66221C149.856 1.6635 150.075 1.7621 150.332 1.95799C150.521 1.6292 150.688 1.35738 150.833 1.14255C151.089 0.752554 151.412 0.676832 151.8 0.915381C152.297 1.14382 152.489 1.53789 152.377 2.09759C152.286 2.30737 152.158 2.50236 151.992 2.68258C151.437 3.61283 150.941 4.48273 150.504 5.29228L150.413 5.49298C149.98 6.35698 149.697 6.95085 149.562 7.27459C150.807 6.88432 151.718 6.63498 152.294 6.52658C152.868 6.40003 153.516 6.28489 154.239 6.18116C154.572 6.22342 154.857 6.33426 155.094 6.51369C155.348 6.69144 155.459 6.90082 155.427 7.14185C155.425 7.32504 155.364 7.44977 155.242 7.51602C155.12 7.58227 154.977 7.62299 154.814 7.63816C153.555 7.88322 152.568 8.103 151.854 8.29749C151.158 8.49029 150.488 8.67149 149.845 8.84109L148.344 9.52976C148.296 9.60742 148.186 9.80073 148.013 10.1097C147.857 10.3988 147.55 11.0406 147.093 12.035C147.492 12.3825 147.748 12.679 147.863 12.9247C149.25 12.4847 150.405 12.1119 151.329 11.8064C151.751 11.6208 152.2 11.5242 152.675 11.5166C153.132 11.5108 153.486 11.6793 153.738 12.0221C153.988 12.3467 154.098 12.7484 154.069 13.227C153.997 15.0096 153.937 16.6263 153.888 18.0771C153.838 19.5097 153.735 20.8649 153.579 22.1426C153.369 22.4368 153.08 22.5826 152.714 22.58C152.418 22.5525 152.232 22.4233 152.156 22.1924C152.098 21.9598 152.057 21.7165 152.033 21.4623C150.877 22.0274 149.561 22.5341 148.083 22.9826C147.659 23.1501 147.239 23.1617 146.823 23.0173C146.426 22.8893 146.085 22.564 145.798 22.0414C145.609 21.1803 145.482 20.4139 145.42 19.7423C145.358 19.0707 145.32 18.1771 145.308 17.0615C145.298 16.7512 145.294 16.4129 145.296 16.0465C144.9 16.9071 144.564 17.6249 144.288 18.1998C143.779 19.2174 143.464 20.2627 143.344 21.3357ZM146.987 14.4341C146.895 15.8156 146.861 16.8257 146.884 17.4644C148.919 16.9092 150.682 16.3793 152.173 15.8747C152.277 14.8215 152.291 13.8865 152.215 13.0697C151.486 13.3022 150.867 13.5336 150.357 13.764C149.864 13.9746 149.399 14.1917 148.962 14.4154C148.542 14.6192 148.2 14.7791 147.936 14.8952C147.69 15.0095 147.374 14.8558 146.987 14.4341ZM146.853 18.3185C146.931 19.1535 146.98 19.7805 147 20.1997C147.039 20.6172 147.142 21.0378 147.31 21.4616C148.219 21.1942 149.002 20.9566 149.66 20.749C150.32 20.5596 151.122 20.3204 152.065 20.0314C152.133 19.1829 152.166 18.2644 152.166 17.2759C150.768 17.7902 149.795 18.1643 149.25 18.398C148.704 18.6318 148.257 18.7466 147.909 18.7423C147.577 18.7182 147.225 18.5769 146.853 18.3185ZM147.231 7.90299C147.327 7.74766 147.43 7.58242 147.542 7.40726C147.827 6.92314 148.125 6.38288 148.435 5.78648C148.853 4.96047 149.231 4.2022 149.57 3.51168C149.017 3.67284 148.259 3.8897 147.296 4.16224C147.291 5.29772 147.271 6.45304 147.233 7.62819L147.231 7.90299ZM168.227 16.2236C168.026 16.6267 167.767 16.9894 167.449 17.3119C167.149 17.6326 166.848 17.9353 166.545 18.2197C166.256 18.4662 165.987 18.6194 165.736 18.6793C165.487 18.7573 165.172 18.7134 164.79 18.5474C164.427 18.3798 164.153 18.094 163.969 17.69C163.58 17.0488 163.302 16.1226 163.134 14.9116C162.965 13.6823 162.891 12.1971 162.913 10.4559C162.951 8.69488 163.081 6.94355 163.304 5.20195C163.393 4.58948 163.441 4.1182 163.447 3.78811C163.469 3.43818 163.551 3.22925 163.691 3.16131C163.762 3.13642 163.842 3.11975 163.933 3.11133C164.024 3.1029 164.144 3.11009 164.292 3.13291C164.551 3.16376 164.79 3.26974 165.008 3.45086C165.225 3.61383 165.337 3.83229 165.344 4.10624C165.349 4.36204 165.361 4.58977 165.38 4.78943C165.182 6.01606 165.012 7.24016 164.87 8.46173C164.727 9.6833 164.671 11.0524 164.702 12.5691C164.749 14.0659 164.846 15.2012 164.991 15.9749C165.152 16.7288 165.275 17.1659 165.36 17.2863C165.862 16.7819 166.381 16.3584 166.917 16.0157C167.086 15.8718 167.252 15.7832 167.414 15.7499C167.594 15.7148 167.751 15.7368 167.887 15.8158C168.04 15.893 168.154 16.029 168.227 16.2236ZM173.846 14.9327C173.175 15.1965 172.577 15.0598 172.051 14.5228C171.868 14.137 171.803 13.8227 171.853 13.58C171.902 13.3191 172.153 13.1586 172.605 13.0983C173.676 12.9988 174.737 12.7995 175.79 12.5004C176.841 12.1831 177.871 11.8403 178.88 11.4719C179.413 11.2943 179.758 11.363 179.915 11.6779C180.091 11.9911 180.15 12.2328 180.092 12.4029C180.035 12.573 179.84 12.7467 179.509 12.9239C179.178 13.1011 178.455 13.3971 177.34 13.8119C176.243 14.225 175.078 14.5986 173.846 14.9327ZM171.601 8.49563C171.393 8.42342 171.21 8.33053 171.053 8.21696C170.896 8.10339 170.746 7.97082 170.604 7.81926C170.46 7.64955 170.371 7.47479 170.336 7.29496C170.317 7.0953 170.34 6.84605 170.404 6.5472C172.116 6.05864 173.807 5.54455 175.478 5.00491C175.945 4.90663 176.332 4.83408 176.639 4.78727C176.964 4.73877 177.261 4.7844 177.53 4.92416C177.816 5.04408 178.05 5.39764 178.233 5.98482C178.017 6.22455 177.784 6.37436 177.533 6.43427C177.281 6.47602 177.028 6.5087 176.773 6.5323C176.519 6.5559 176.045 6.67318 175.351 6.88413C174.656 7.09509 174.036 7.31745 173.49 7.55122C172.944 7.78499 172.315 8.09979 171.601 8.49563Z" fill="#263238"/>
<path d="M41.9069 54.3258C42.0651 55.0434 42.1123 55.5516 42.0485 55.8505C42.9785 55.4163 43.9811 54.9753 45.0563 54.5276C44.8441 53.2292 44.8626 52.5409 45.1116 52.4629C45.3426 52.3865 45.5595 52.3572 45.7626 52.3749C45.9837 52.391 46.2184 52.5523 46.4666 52.8588L46.8919 53.8903L47.691 53.6238C48.057 53.4251 48.4308 53.4087 48.8124 53.5746C49.2813 53.6958 49.5261 53.966 49.5467 54.3852C49.5754 54.6937 49.4751 54.8953 49.2459 54.9898C49.015 55.0662 48.7024 55.1501 48.3081 55.2417C47.9303 55.3134 47.5187 55.4157 47.0734 55.5486C47.1095 57.1197 47.146 58.1049 47.1831 58.5042C47.8163 58.2257 48.4907 57.8976 49.2062 57.5199C49.5739 57.3393 49.9652 57.4128 50.3801 57.7404C50.8431 58.1917 50.7259 58.6054 50.0285 58.9814C49.1049 59.2869 48.1428 59.7698 47.1423 60.4303C47.2003 62.2374 47.2215 63.3522 47.2058 63.7747C47.2099 64.2137 47.2293 64.8161 47.2638 65.5818C47.3022 65.7979 47.2316 66.0241 47.0522 66.2605C46.8728 66.4969 46.6807 66.5971 46.476 66.5612C45.8504 66.5277 45.5246 66.1735 45.4985 65.4986C45.575 64.9422 45.6137 64.4718 45.6146 64.0873C45.6155 63.7027 45.5865 62.7992 45.5276 61.3767C44.8813 61.7113 44.2829 62.0689 43.7324 62.4496C43.1836 62.8484 42.765 63.1711 42.4767 63.4175C42.1685 63.6475 41.8792 63.7843 41.6086 63.8277C41.338 63.8711 41.0647 63.7867 40.7887 63.5743C40.5325 63.3784 40.3603 63.1015 40.2721 62.7435C41.0861 62.0455 41.9183 61.4464 42.769 60.9463C43.6377 60.4446 44.5477 59.8932 45.4988 59.2923C45.4289 58.1454 45.3543 57.1454 45.2751 56.2923C44.693 56.5294 44.2024 56.7672 43.8035 57.0056C43.421 57.2242 43.1291 57.3337 42.9278 57.3341C42.7247 57.3164 42.4116 57.0983 41.9883 56.6799C41.8897 57.7875 42.0342 58.6529 42.4216 59.276C42.0826 59.7652 41.6636 59.8865 41.1647 59.6399C40.7962 59.4178 40.557 59.0098 40.4469 58.4159C40.2162 56.9177 40.1894 55.4465 40.3665 54.002C40.5788 53.726 40.9079 53.6222 41.3536 53.6907C41.8175 53.7574 42.0019 53.9691 41.9069 54.3258ZM40.3073 51.5909C40.5797 50.7784 40.8666 49.8272 41.1682 48.7374C41.4697 47.6475 41.6594 46.7328 41.7372 45.9933C40.9967 46.3001 40.4708 46.5503 40.1592 46.744C39.846 46.9196 39.5543 47.1297 39.2841 47.3745C39.0333 47.4344 38.837 47.4893 38.6952 47.539C38.5698 47.569 38.3841 47.5405 38.138 47.4535C37.8734 47.1668 37.6639 46.7835 37.5095 46.3036C37.5602 46.0609 38.5089 45.5334 40.3558 44.7211C42.2208 43.9071 43.597 43.349 44.4843 43.0469C45.3699 42.7267 46.1279 42.5098 46.7581 42.3964L47.0576 42.3686C47.3843 42.3382 47.6971 42.3549 47.9959 42.4187C48.6004 42.6189 48.8875 43.0499 48.8575 43.7118C48.8815 44.1672 48.7788 44.8358 48.5495 45.7176L48.5127 45.9132C48.2965 46.7389 48.0192 47.5976 47.681 48.4895C47.3115 49.4392 46.8774 50.285 46.3788 51.027C45.613 51.8488 44.8678 51.8081 44.1431 50.9051C43.8486 50.4931 43.5787 50.0513 43.3335 49.5798C43.1761 49.2649 43.0269 48.94 42.886 48.6053C42.7829 49.0725 42.5885 49.6398 42.3026 50.3071C42.1514 50.6507 41.9764 51.0331 41.7775 51.4544C41.6099 51.8178 41.3619 52.0056 41.0335 52.0178C40.7595 52.0249 40.5381 51.9082 40.3693 51.6675L40.3073 51.5909ZM34.7652 64.6555C35.6351 64.7578 36.2921 64.8341 36.7362 64.8844C36.8578 64.6168 36.9028 64.0176 36.8713 63.0868C36.8398 62.1561 36.7796 60.9168 36.6908 59.3689C36.4139 59.541 36.024 59.7786 35.5212 60.0816C35.0184 60.3846 34.3664 60.7564 33.5652 61.197C32.7821 61.6359 31.8678 62.0412 30.8221 62.4129C30.0564 62.4474 29.5637 61.9714 29.3439 60.9849C29.7166 60.8587 30.0474 60.7731 30.3361 60.728C30.6413 60.663 31.1006 60.4831 31.714 60.1881C31.6327 59.1155 31.5644 58.3804 31.5091 57.9827L31.1431 58.1815L30.8563 58.3454C30.5464 58.5573 30.1965 58.5349 29.8065 58.2782C29.4347 58.0198 29.2714 57.6413 29.3166 57.1428C29.9515 56.8825 30.606 56.5379 31.2802 56.1092C31.32 55.3549 31.2547 54.4547 31.0843 53.4087C30.433 53.6889 29.9384 53.9819 29.6007 54.2879C29.2613 54.5758 28.8632 54.8233 28.4064 55.0305C28.323 57.0887 28.2826 58.8225 28.2854 60.2319C28.2839 61.2023 28.3054 62.0242 28.3496 62.6975C28.4781 64.2783 28.6352 65.2798 28.8209 65.7019C28.8888 65.8421 28.9329 66.0211 28.9531 66.2389C28.9932 66.4731 28.864 66.6591 28.5655 66.7966C27.9965 66.9776 27.5869 66.8051 27.3366 66.2792C27.229 66.1061 27.1126 65.6409 26.9873 64.8836C26.9169 64.3226 26.8593 63.1105 26.8144 61.2473C26.8081 60.5888 26.7935 59.8396 26.7704 58.9995C26.7493 55.816 26.7439 53.885 26.7541 53.2067C26.7643 52.5284 26.7271 52.0284 26.6423 51.7067C26.6149 51.2149 26.857 50.9636 27.3686 50.9527C28.0735 51.052 28.439 51.4391 28.4651 52.1141C28.4574 52.426 28.4447 52.6835 28.427 52.8866C28.869 52.7174 29.3413 52.4812 29.8441 52.1782C30.3651 51.8736 30.6939 51.6691 30.8307 51.5648C30.366 51.0954 30.3171 50.569 30.684 49.9857C31.3798 48.8043 32.1003 47.5932 32.8455 46.3523C32.6311 46.4088 32.2938 46.5225 31.8337 46.6934C31.3917 46.8626 30.9358 47.0789 30.466 47.3422C30.0126 47.5857 29.5733 47.8828 29.1482 48.2335C28.8582 48.4618 28.5811 48.5333 28.3168 48.448C28.0691 48.3429 27.8584 48.2435 27.685 48.1497C26.762 49.6451 26.0064 51.0701 25.4182 52.4245C24.948 52.4865 24.6162 52.4624 24.4229 52.3522C24.2279 52.2239 24.1169 52.0145 24.09 51.7241C24.3083 51.1179 24.6854 50.2499 25.2212 49.12C25.7735 47.9703 26.6445 46.5071 27.8343 44.7306C28.1226 44.4842 28.389 44.3953 28.6334 44.4642C29.0263 44.5558 29.2775 44.6973 29.3868 44.8885C29.5125 45.0599 29.5518 45.2851 29.5044 45.5641L29.1738 46.1441C30.6281 45.4415 32.0703 44.9047 33.5005 44.5339C33.8239 44.4673 34.135 44.4658 34.4338 44.5296C35.1408 44.8484 35.3638 45.3769 35.1028 46.1152C34.7934 46.5284 34.4174 47.1125 33.9749 47.8676C33.5307 48.6046 33.1127 49.2292 32.721 49.7416C32.3292 50.254 32.0395 50.6837 31.8521 51.0306C32.8183 50.593 34.1029 50.0343 35.7058 49.3545C35.9333 49.2419 36.1642 49.1655 36.3985 49.1254C36.6311 49.0672 36.8812 49.0989 37.1488 49.2205C37.5734 49.4557 37.7928 49.8472 37.8071 50.3951C37.8817 51.3951 37.9455 52.3778 37.9985 53.3432C38.0654 54.6551 38.1117 55.9415 38.1373 57.2024C38.2159 59.4286 38.2804 61.2076 38.3309 62.5394C38.3796 63.853 38.4369 64.8637 38.5026 65.5716C38.5422 66.3918 38.1815 66.7457 37.4204 66.6333C36.5137 66.333 35.8496 65.9828 35.428 65.5826C35.0262 65.1988 34.8052 64.8898 34.7652 64.6555ZM46.4332 47.1774C46.8293 46.3167 47.0846 45.222 47.1992 43.8932C46.5014 44.0679 45.7724 44.3004 45.0121 44.5907C44.2683 44.8611 43.6771 45.0991 43.2385 45.3046C43.4103 45.3802 43.55 45.5045 43.6576 45.6776C43.7652 45.8507 43.7536 46.2179 43.6226 46.7793C43.6057 47.3851 43.7461 47.9121 44.0441 48.3604C44.1682 48.5137 44.2832 48.6677 44.3891 48.8227C44.5976 49.0962 44.8052 49.3607 45.012 49.6161C45.5174 48.9467 45.9451 48.2296 46.2951 47.4648C46.3593 47.3673 46.4053 47.2715 46.4332 47.1774ZM35.9429 55.4564C35.9155 55.7519 35.7491 55.9321 35.4439 55.9971C35.0762 56.1777 34.6714 56.3526 34.2294 56.5218C33.7858 56.6728 33.3579 56.8956 32.9459 57.1902C32.9306 57.8141 32.9966 58.6227 33.1437 59.6159C33.5 59.5096 33.8776 59.3372 34.2766 59.0988C34.6936 58.8587 35.4535 58.367 36.5562 57.6238C36.5141 56.3828 36.4708 55.325 36.4262 54.4504C36.3951 53.721 36.3584 53.1294 36.3163 52.6756C36.2616 51.6921 36.1597 51.0882 36.0107 50.8641C34.6616 51.3189 33.3986 51.9122 32.2216 52.644C32.4449 52.8795 32.594 53.2044 32.6691 53.6185C32.7551 54.5442 32.8198 55.1423 32.8632 55.4129C33.1781 55.2555 33.5813 55.0624 34.0727 54.8337C34.5476 54.6249 35.0725 54.6585 35.6473 54.9346C35.7845 55.0317 35.883 55.2057 35.9429 55.4564ZM70.6263 44.9853C69.1468 45.4157 67.7617 46.0752 66.4712 46.964C66.1529 47.0851 65.6144 46.8056 64.8555 46.1254C64.6584 45.7776 64.7973 45.4992 65.2722 45.2904C66.0735 44.8498 66.8715 44.4736 67.6664 44.1618C68.4596 43.8318 69.5092 43.4048 70.8153 42.8807C70.859 41.5768 70.9193 40.7474 70.9962 40.3924C71.2684 40.3671 71.554 40.3863 71.8528 40.4501C72.1517 40.5139 72.3591 40.6777 72.4752 40.9415C72.5895 41.1872 72.6593 41.4462 72.6846 41.7185C72.7264 41.9709 72.7491 42.2159 72.7529 42.4536L73.8812 42.184C74.3481 42.0857 74.9355 42.0037 75.6434 41.938C76.0988 41.914 76.5347 41.9742 76.9508 42.1186C77.3324 42.2846 77.5953 42.5531 77.7397 42.9241C77.884 43.2952 77.8499 43.6187 77.6376 43.8948L77.4552 44.2962C77.0722 45.1006 76.7015 45.8399 76.343 46.514C75.9385 47.2839 75.5891 47.9571 75.2948 48.5336C76.3176 48.3105 77.3866 48.0922 78.5019 47.8788C79.0545 47.7176 79.5679 47.8255 80.0423 48.2025C80.2508 48.4761 80.3513 48.7689 80.3436 49.0808C80.2647 49.2163 80.1551 49.318 80.015 49.3859C79.8731 49.4357 79.7304 49.4764 79.5869 49.5081C78.3345 49.6244 77.0839 49.8595 75.8353 50.2135C74.6048 50.5658 73.2721 51.0008 71.8373 51.5185C72.9155 53.4688 74.0235 55.0502 75.1614 56.2627C76.3157 57.4553 77.2068 58.2788 77.8349 58.7331C78.4629 59.1874 78.9901 59.5412 79.4164 59.7945C79.5949 59.9427 79.7133 60.1331 79.7715 60.3657C79.8314 60.6164 79.817 60.8557 79.7283 61.0837C79.5092 61.2871 79.2792 61.3725 79.0381 61.34C78.7971 61.3075 78.6146 61.2146 78.4905 61.0613C77.025 60.2637 75.6217 59.1492 74.2804 57.7176C72.9391 56.286 71.8513 54.9224 71.017 53.6268C70.9317 53.8911 70.638 54.7697 70.1359 56.2626C69.6503 57.7357 68.9991 59.7917 68.1823 62.4306C68.1135 62.675 68.0347 62.9112 67.946 63.1391C67.8261 63.4249 67.6623 63.6323 67.4546 63.7614C67.2668 63.907 67.0489 63.9273 66.8012 63.8221C66.1718 63.551 65.9514 63.0498 66.1397 62.3183C66.4273 61.6691 66.7024 60.9845 66.9651 60.2644C67.4819 58.7335 67.9192 57.4296 68.2769 56.3529C68.6346 55.2761 69.0267 54.0772 69.4532 52.756C68.8399 53.051 68.3082 53.3384 67.8582 53.6182C67.4065 53.8798 67.0719 54.1214 66.8545 54.343C66.7244 54.5198 66.5885 54.6331 66.4467 54.6829C66.3213 54.7129 66.1356 54.6844 65.8895 54.5974C65.6599 54.4906 65.4541 54.3449 65.2722 54.1604C64.8291 53.7256 64.7928 53.3353 65.1635 52.9897L65.3414 52.8358L65.5219 52.7092C65.939 52.4691 66.4426 52.1752 67.0328 51.8274C67.7285 51.4333 68.6567 50.9809 69.8176 50.4703C69.8797 50.1533 69.9427 49.8454 70.0064 49.5466C70.3152 47.9434 70.5219 46.423 70.6263 44.9853ZM56.8583 60.8461C57.3379 60.4903 58.0227 59.9782 58.9126 59.3097C59.8025 58.6412 61.444 57.4909 63.8372 55.859C63.9959 55.9907 64.097 56.1919 64.1404 56.4624C64.202 56.7313 64.0179 57.1146 63.5881 57.6122C62.379 58.7863 61.4319 59.7256 60.7467 60.43C60.0598 61.1163 59.6258 61.5685 59.4447 61.7867C59.1006 62.2214 58.7933 62.4605 58.5227 62.5039C58.272 62.5638 57.849 62.3468 57.2539 61.8529C57.0948 61.5198 56.963 61.1842 56.8583 60.8461ZM62.1009 52.8347C61.829 53.0614 61.6057 53.2194 61.4309 53.3089C60.2696 53.6181 59.1041 53.882 57.9344 54.1005C57.5351 54.1375 57.1759 54.0153 56.8568 53.7337C56.5559 53.4504 56.369 53.2115 56.296 53.0169C56.2213 52.8041 56.2532 52.6547 56.3916 52.5686C56.5301 52.4825 56.7403 52.3806 57.0223 52.2629C58.2135 52.079 59.4354 51.9289 60.6878 51.8126C60.9039 51.7742 61.1251 51.7903 61.3513 51.8608C61.5759 51.9132 61.7346 52.0449 61.8274 52.256C61.9186 52.4489 62.0097 52.6418 62.1009 52.8347ZM61.6842 48.6444C60.179 48.6011 58.5507 48.5143 56.7994 48.384C56.3389 48.3536 55.9927 48.1752 55.7611 47.8489C55.5475 47.5209 55.3901 47.2059 55.2889 46.9041C55.4232 46.379 55.771 46.182 56.3324 46.3129C57.554 46.4557 58.5989 46.5692 59.4672 46.6534C59.9707 46.753 60.5298 46.9574 61.1443 47.2665C61.4187 47.4607 61.5858 47.6832 61.6457 47.9339C61.7056 48.1847 61.7184 48.4215 61.6842 48.6444ZM75.5773 43.5918C75.2455 43.5677 74.8643 43.6031 74.4338 43.698C74.0032 43.7929 73.3451 44.0005 72.4595 44.3208C72.355 45.7585 72.2293 46.8686 72.0822 47.6512C72.0611 47.8179 72.0391 47.9756 72.0163 48.1241C71.9086 48.7383 71.8066 49.3153 71.7103 49.8552L73.0558 49.2634C73.6254 48.4965 74.1639 47.4944 74.6715 46.2573C74.9818 45.4596 75.2838 44.5711 75.5773 43.5918ZM95.5436 57.3904C94.9568 57.7745 94.3177 57.9894 93.6263 58.0353C92.9349 58.0812 92.3222 57.891 91.7883 57.4646C91.2544 57.0382 90.7986 56.4672 90.4209 55.7517C90.058 54.9981 89.7968 53.9606 89.6375 52.6389C89.4946 51.2974 89.4194 49.9954 89.412 48.7329C89.4029 47.4522 89.4166 46.0229 89.4532 44.4451C89.3996 44.0656 89.4288 43.7882 89.5407 43.6131C89.6065 43.5337 89.7211 43.4865 89.8845 43.4713C89.9934 43.4612 90.1312 43.4667 90.2979 43.4878C90.6711 43.563 90.9916 43.7621 91.2596 44.085C91.5259 44.3898 91.6116 44.7206 91.5166 45.0773C91.3724 46.482 91.3293 48.0879 91.3873 49.895C91.4453 51.7021 91.5538 53.1658 91.7128 54.2861C91.8431 55.0978 92.015 55.6677 92.2285 55.9957C92.4586 56.3039 93.1137 56.2613 94.1939 55.8681C95.1881 55.3364 96.1037 54.7479 96.9409 54.1026C97.7763 53.4391 98.8596 52.4872 100.191 51.2468C100.371 51.2118 100.513 51.2627 100.617 51.3995C100.719 51.5181 100.773 51.6963 100.776 51.9339C100.778 52.1534 100.625 52.4788 100.318 52.9102C100.008 53.3234 99.4731 53.9681 98.7124 54.8443C97.968 55.7006 96.9118 56.5493 95.5436 57.3904ZM116.391 43.0416C115.925 42.9567 115.433 42.975 114.913 43.0965C114.394 43.218 113.535 43.5357 112.338 44.0497C111.141 44.5636 110.319 44.9786 109.872 45.2947C109.426 45.6108 109.124 45.8128 108.967 45.9006C108.811 45.9883 108.517 45.979 108.086 45.8726C107.658 45.6011 107.397 45.3507 107.302 45.1215C107.208 44.8923 107.191 44.7108 107.252 44.577C107.329 44.4233 107.787 44.1336 108.626 43.7078C109.484 43.2804 110.579 42.8491 111.911 42.4141C113.261 41.9593 114.557 41.6283 115.801 41.4213C116.509 41.3555 116.98 41.4033 117.215 41.5646C117.466 41.706 117.716 41.93 117.964 42.2365C118.229 42.5231 118.37 42.9585 118.387 43.5427C118.16 43.8568 117.94 44.1427 117.726 44.4006C117.511 44.6585 117.167 45.0932 116.693 45.7048C116.219 46.3163 115.576 47.1816 114.765 48.3005C113.972 49.4177 113.344 50.3456 112.881 51.0842C112.694 51.4312 112.572 51.6897 112.514 51.8598C112.457 52.0299 112.668 52.3307 113.147 52.7622C113.627 53.1936 114.096 53.5162 114.555 53.7299C115.033 53.9418 115.497 54.1183 115.95 54.2594C116.401 54.3823 116.76 54.5045 117.028 54.6261C117.296 54.9491 117.37 55.2535 117.25 55.5392C117.131 55.8431 116.884 56.04 116.508 56.1298C116.16 56.1256 115.568 55.9609 114.732 55.6357C113.896 55.3106 112.957 54.757 111.914 53.9751C111.342 53.5339 110.952 53.0759 110.743 52.601C110.532 52.1079 110.632 51.403 111.041 50.4863C111.541 49.5611 112.164 48.5787 112.909 47.5391C113.655 46.4996 114.314 45.6145 114.887 44.8839C115.478 44.1516 115.979 43.5375 116.391 43.0416ZM135.065 51.7151C134.792 52.1249 134.449 52.4771 134.037 52.7717C133.624 53.0481 133.162 53.2009 132.652 53.2299C132.142 53.259 131.657 53.1667 131.198 52.953C130.737 52.7212 130.351 52.4092 130.04 52.017C129.478 51.2821 129.012 50.5106 128.644 49.7026C128.275 48.8765 127.946 47.9917 127.657 47.0482C127.386 46.1031 127.148 45.1182 126.943 44.0938C126.924 43.6927 126.985 43.4673 127.127 43.4176C127.267 43.3496 127.467 43.3311 127.726 43.3619C127.984 43.3746 128.219 43.4443 128.432 43.571C128.663 43.696 128.827 43.8821 128.923 44.1295C129.036 44.357 129.113 44.597 129.155 44.8494C129.223 45.7768 129.399 46.6941 129.685 47.6013C129.987 48.4886 130.273 49.2035 130.543 49.7459C130.83 50.2685 131.191 50.8026 131.626 51.348C131.914 51.6874 132.248 51.7388 132.629 51.502C132.919 51.2737 133.288 50.9099 133.736 50.4106C134.184 49.9113 134.612 49.3955 135.02 48.8633C135.445 48.3113 135.846 47.8071 136.225 47.3509C136.519 47.3602 136.718 47.4332 136.822 47.57C136.943 47.687 136.976 47.9402 136.92 48.3298C136.881 48.6996 136.776 49.048 136.605 49.3751C136.434 49.7023 135.921 50.4822 135.065 51.7151ZM144.193 47.9839C144.144 48.2448 143.976 48.4068 143.689 48.4701C143.418 48.5136 143.215 48.4958 143.08 48.4168C142.757 48.0989 142.511 47.719 142.342 47.277C141.943 45.941 141.613 44.7451 141.35 43.6894C141.104 42.6138 140.935 41.8879 140.846 41.5118C140.796 41.37 140.8 41.214 140.857 41.0439C140.916 40.892 141.027 40.8084 141.191 40.7932C141.336 40.7797 141.484 40.7935 141.634 40.8344C141.877 40.8851 142.105 40.9738 142.318 41.1005C142.529 41.209 142.682 41.3779 142.777 41.6071C142.87 41.8181 142.927 42.0417 142.949 42.2776C143.279 44.0594 143.538 45.3718 143.726 46.2148C143.933 47.0561 144.088 47.6458 144.193 47.9839ZM158.46 43.8028C157.486 44.351 156.727 44.7511 156.182 45.003C155.656 45.2532 155.288 45.4248 155.077 45.5176C154.78 45.6733 154.466 45.7391 154.134 45.715C153.801 45.6727 153.521 45.5157 153.294 45.2438C153.085 44.9702 152.963 44.6338 152.926 44.2345C153.76 43.9556 154.485 43.6777 155.1 43.4009C155.733 43.1224 156.756 42.6063 158.169 41.8526C158.11 41.2173 157.996 40.578 157.826 39.9347C157.657 39.2914 157.444 38.6795 157.189 38.0991C156.923 38.197 156.481 38.3571 155.86 38.5795C155.24 38.8018 154.471 39.093 153.552 39.4529C153.186 39.6516 152.875 39.7447 152.617 39.732C152.378 39.7176 152.147 39.6017 151.926 39.3843C151.704 39.1668 151.504 38.8834 151.325 38.5338C151.321 38.2962 151.407 38.1326 151.582 38.0432C151.755 37.9356 152.242 37.7621 153.044 37.5229C153.844 37.2655 154.945 36.8978 156.346 36.4198C156.245 36.118 156.11 35.7461 155.941 35.3041C156.046 35.0563 156.216 34.9215 156.452 34.8996C156.543 34.8911 156.644 34.8909 156.754 34.899C157.129 34.9923 157.408 35.1403 157.592 35.343C157.792 35.5258 157.955 35.7029 158.081 35.8742C158.653 35.7295 159.199 35.5965 159.719 35.475C160.238 35.3535 160.63 35.3354 160.895 35.4207C161.159 35.506 161.365 35.6607 161.514 35.8849C161.663 36.109 161.732 36.3499 161.719 36.6074C160.688 36.9411 159.736 37.24 158.864 37.5041C159.045 38.0732 159.177 38.5094 159.26 38.813C159.359 39.0966 159.561 39.7828 159.863 40.8715C160.173 40.6596 160.447 40.4602 160.686 40.2732C160.923 40.0681 161.148 39.9282 161.361 39.8536C161.652 39.8266 161.907 39.9127 162.127 40.112C162.347 40.3113 162.414 40.543 162.329 40.8072C162.163 41.1888 161.84 41.5575 161.36 41.9132C160.899 42.2673 160.487 42.5619 160.124 42.797C160.185 43.2491 160.219 43.7218 160.228 44.2153C160.254 44.6889 160.179 45.2634 160.004 45.9387C159.827 46.5959 159.632 47.0535 159.418 47.3113C159.204 47.5692 158.978 47.7 158.74 47.7038C158.521 47.7059 158.307 47.6708 158.099 47.5986C157.909 47.5247 157.796 47.2972 157.761 46.916C158.073 46.5391 158.285 46.0527 158.394 45.4567C158.522 44.859 158.544 44.3077 158.46 43.8028ZM158.749 53.717C157.6 53.5674 156.448 53.1802 155.291 52.5553C154.153 51.9287 153.334 51.3914 152.835 50.9435C152.611 50.7079 152.464 50.5019 152.393 50.3255C152.338 50.1292 152.339 49.946 152.397 49.7759C152.472 49.6041 152.673 49.503 153 49.4727C153.281 49.5382 153.581 49.6201 153.902 49.7185C154.24 49.8152 154.519 49.9632 154.739 50.1625C155.308 50.7687 155.88 51.2099 156.455 51.486C157.028 51.744 157.876 52.004 158.999 52.2658C159.356 52.3609 159.583 52.5411 159.681 52.8066C159.779 53.0722 159.725 53.2877 159.521 53.4531C159.317 53.6185 159.06 53.7065 158.749 53.717ZM179.32 40.8219C178.619 41.1616 177.9 41.503 177.163 41.8461C176.444 42.1875 175.718 42.4562 174.986 42.6524C174.63 42.7587 174.33 42.6859 174.087 42.4338C173.842 42.1637 173.675 41.9412 173.586 41.7664C173.495 41.5735 173.488 41.4002 173.565 41.2466C173.626 41.1128 173.907 40.986 174.408 40.8662C174.908 40.7282 175.361 40.5763 175.766 40.4105C176.19 40.243 176.65 40.063 177.144 39.8706C177.656 39.6583 178.354 39.2914 179.239 38.7698C179.208 38.2417 179.174 37.7781 179.137 37.3787C179.099 36.9613 179.045 36.4811 178.976 35.9383C178.578 35.9935 177.96 36.1333 177.12 36.3578C176.297 36.5624 175.576 36.7849 174.958 37.0254C174.358 37.2643 173.723 37.5246 173.053 37.8065C172.898 37.9124 172.739 37.973 172.576 37.9881C172.412 38.0033 172.251 37.945 172.093 37.8133C171.934 37.6816 171.799 37.511 171.688 37.3017C171.577 37.0923 171.53 36.877 171.546 36.6558C171.667 36.3882 172.019 36.1358 172.601 35.8987C173.2 35.6417 174.034 35.3628 175.105 35.062C176.174 34.7431 177.357 34.4684 178.653 34.2381C178.573 33.7696 178.483 33.3844 178.381 33.0826C178.379 32.8631 178.512 32.7135 178.779 32.6337C178.832 32.6105 178.885 32.5964 178.94 32.5913C179.139 32.5728 179.356 32.6351 179.589 32.7782C179.861 32.9543 180.116 33.3334 180.353 33.9155C180.887 33.9392 181.236 33.9525 181.401 33.9555C181.624 33.9897 181.823 34.0719 182 34.2019C182.194 34.3121 182.31 34.4843 182.35 34.7186C182.407 34.9331 182.429 35.169 182.416 35.4265C181.799 35.4838 181.19 35.5312 180.589 35.5687C180.661 36.1479 180.753 36.9357 180.864 37.9324C181.195 37.7551 181.552 37.5572 181.935 37.3386C182.088 37.4159 182.228 37.5402 182.354 37.7116C182.498 37.8813 182.565 38.1131 182.556 38.4069C182.564 38.699 182.47 38.964 182.272 39.2021C182.194 39.3376 181.728 39.6463 180.876 40.1282C180.834 40.663 180.821 41.2134 180.837 41.7795C180.871 42.3439 180.868 43.2961 180.827 44.6363C181.797 44.4364 182.642 44.2664 183.361 44.1264C184.099 43.9847 184.698 43.929 185.158 43.9595C185.375 44.3238 185.482 44.5885 185.479 44.7535C185.475 44.9004 185.423 45.0334 185.324 45.1524C185.243 45.2697 185.006 45.3742 184.612 45.4657C184.216 45.5391 183.59 45.6979 182.734 45.9422C181.878 46.1865 181.266 46.3989 180.898 46.5795C180.833 47.2629 180.762 47.8737 180.684 48.4119C180.64 48.9286 180.475 49.4199 180.189 49.8858C179.921 50.3501 179.502 50.6728 178.933 50.8538C178.317 51.1124 177.661 51.155 176.968 50.9814C176.293 50.8061 175.735 50.5192 175.295 50.1207C174.857 49.7403 174.53 49.3679 174.313 49.0036C174.112 48.6195 174.066 48.3217 174.175 48.1102C174.262 47.8641 174.493 47.5955 174.869 47.3043C175.245 47.0131 175.667 46.7267 176.135 46.4453C176.619 46.1439 177.108 45.888 177.601 45.6774C178.094 45.4669 178.605 45.2455 179.132 45.0135C179.215 44.3284 179.263 43.7564 179.275 43.2976C179.286 42.8206 179.301 41.9954 179.32 40.8219ZM179.045 47.0263C178.565 47.1807 178.021 47.4326 177.412 47.7821C176.804 48.1315 176.378 48.4731 176.134 48.807C176.375 49.224 176.657 49.509 176.983 49.6619C177.326 49.813 177.68 49.7802 178.045 49.5632C178.424 49.3083 178.672 48.9283 178.79 48.423C178.926 47.9161 179.011 47.4505 179.045 47.0263ZM201.357 47.5628C200.77 47.9469 200.131 48.1619 199.44 48.2078C198.748 48.2537 198.136 48.0634 197.602 47.637C197.068 47.2106 196.612 46.6396 196.234 45.9241C195.871 45.1706 195.61 44.133 195.451 42.8113C195.308 41.4698 195.233 40.1678 195.225 38.9053C195.216 37.6246 195.23 36.1953 195.267 34.6175C195.213 34.238 195.242 33.9607 195.354 33.7855C195.42 33.7062 195.534 33.6589 195.698 33.6437C195.807 33.6336 195.945 33.6391 196.111 33.6603C196.484 33.7354 196.805 33.9345 197.073 34.2575C197.339 34.5623 197.425 34.893 197.33 35.2497C197.186 36.6544 197.143 38.2604 197.201 40.0674C197.259 41.8745 197.367 43.3382 197.526 44.4585C197.656 45.2702 197.828 45.8401 198.042 46.1681C198.272 46.4763 198.927 46.4338 200.007 46.0405C201.001 45.5088 201.917 44.9203 202.754 44.275C203.59 43.6116 204.673 42.6597 206.004 41.4193C206.184 41.3843 206.326 41.4351 206.43 41.5719C206.533 41.6905 206.586 41.8687 206.59 42.1063C206.592 42.3258 206.439 42.6513 206.131 43.0826C205.822 43.4958 205.286 44.1405 204.526 45.0167C203.781 45.8731 202.725 46.7218 201.357 47.5628ZM218.668 37.7166C218.83 38.4705 218.949 39.1643 219.026 39.7979C219.12 40.4117 219.188 41.0461 219.23 41.7012C219.651 41.6988 220.062 41.688 220.463 41.6691C220.862 41.632 221.366 41.631 221.973 41.6662C222.328 41.743 222.598 41.8828 222.781 42.0854C222.983 42.2864 223.082 42.561 223.077 42.9092C223.002 43.2824 222.837 43.4717 222.581 43.4771C222.343 43.4809 222.092 43.4401 221.828 43.3548C220.889 43.2956 220.056 43.2997 219.33 43.3671C219.286 44.4696 219.154 45.4156 218.935 46.2049C218.421 47.5708 217.376 48.1529 215.802 47.9514C214.797 47.5869 213.934 46.9623 213.211 46.0774C212.857 45.616 212.679 45.184 212.679 44.7813C212.676 44.3604 212.923 43.9622 213.419 43.5866C214.045 43.2355 214.658 42.9314 215.256 42.6745C215.873 42.4158 216.648 42.1791 217.58 41.9644C217.524 41.164 217.447 40.4388 217.35 39.7888C217.271 39.137 217.079 38.2487 216.773 37.1237C216.466 35.9806 216.2 35.1906 215.976 34.7536C215.944 34.4088 216.03 34.1536 216.235 33.9882C216.286 33.9468 216.357 33.9219 216.447 33.9135C216.702 33.8899 217.068 33.9931 217.547 34.2233C217.899 34.4652 218.161 35.0176 218.333 35.8804C218.775 35.9125 219.463 35.9219 220.395 35.9085C221.346 35.8935 222.058 35.8731 222.531 35.8474C223.021 35.8019 223.39 35.7311 223.637 35.6349C224.169 35.4391 224.544 35.5415 224.764 35.9421C224.985 36.3427 224.886 36.6631 224.469 36.9032C223.754 37.2809 223.07 37.5092 222.418 37.588C221.783 37.647 220.533 37.6899 218.668 37.7166ZM217.546 43.6701C216.693 43.9507 216.056 44.1838 215.634 44.3695C215.211 44.5552 214.824 44.82 214.472 45.164C214.583 45.5747 214.854 45.9249 215.283 46.2145C215.731 46.5024 216.219 46.4388 216.748 46.0235C217.322 45.4943 217.588 44.7098 217.546 43.6701ZM233.758 36.4799C233.499 36.449 233.21 36.3935 232.891 36.3132C232.589 36.2131 232.398 36.0295 232.318 35.7623C232.255 35.4752 232.284 35.1979 232.406 34.9303C232.885 34.1719 233.489 33.4841 234.219 32.8671C234.967 32.2484 235.685 31.7973 236.373 31.5137C237.077 31.2103 237.82 31.0314 238.602 30.9771C239.444 30.9721 240.206 31.1943 240.888 31.6435C241.587 32.0729 242.058 32.7066 242.301 33.5445C242.523 34.366 242.614 35.2454 242.573 36.1829C242.53 37.1023 242.274 38.2886 241.805 39.7419C241.354 41.1934 240.814 42.5709 240.184 43.8743C239.571 45.1579 239.117 45.9872 238.823 46.3625C238.528 46.7377 238.216 47.1237 237.887 47.5204C237.687 47.7403 237.443 47.8637 237.152 47.8907C236.88 47.916 236.63 47.7836 236.401 47.4936C236.153 47.1871 236.151 46.8669 236.394 46.5331C237.426 45.0275 238.27 43.5669 238.926 42.1513C239.598 40.7158 240.17 38.7953 240.643 36.3897C240.776 35.6633 240.828 34.9353 240.797 34.2059C240.863 33.742 240.74 33.3965 240.426 33.1694C240.112 32.9422 239.645 32.8392 239.024 32.8602C238.404 32.8812 237.758 33.0236 237.086 33.2873C236.415 33.551 235.743 33.9979 235.069 34.6281C234.413 35.2565 233.976 35.8738 233.758 36.4799ZM236.375 30.058C236.474 29.1518 236.513 28.1961 236.493 27.1911C236.489 26.1662 236.223 25.1748 235.695 24.217C235.616 23.7666 235.726 23.4726 236.025 23.335C236.13 23.2886 236.238 23.2603 236.346 23.2502C236.492 23.2367 236.624 23.2794 236.743 23.3782C236.923 23.5445 237.178 23.9236 237.508 24.5155C237.855 25.1056 238.065 25.7819 238.135 26.5442C238.206 27.3066 238.179 28.0047 238.055 28.6387C237.949 29.271 237.854 29.7193 237.768 29.9835C237.712 30.1718 237.617 30.3271 237.482 30.4495C237.365 30.5702 237.165 30.5797 236.88 30.4779C236.596 30.3761 236.428 30.2362 236.375 30.058ZM259.849 24.8571C259.552 25.8 259.267 27.8586 258.995 31.0329C258.72 34.189 258.806 36.5975 259.254 38.2586C259.314 38.5094 259.316 38.7289 259.26 38.9171C259.202 39.0872 258.994 39.2073 258.634 39.2773C258.316 39.197 258.103 39.0795 257.997 38.9245C257.908 38.7498 257.827 38.5651 257.754 38.3705C257.426 37.2109 257.25 35.9091 257.226 34.465C257.218 33.0011 257.242 31.3787 257.296 29.5979C257.368 27.8153 257.46 26.0401 257.57 24.2723C257.629 23.7177 257.83 23.4243 258.175 23.3923C258.52 23.3603 258.848 23.4397 259.158 23.6305C259.469 23.8214 259.688 24.0116 259.815 24.2011C259.941 24.3725 259.952 24.5912 259.849 24.8571ZM260.641 45.2148C260.41 45.2912 260.216 45.3642 260.057 45.4338C259.899 45.5034 259.725 45.5013 259.535 45.4274C259.363 45.3518 259.229 45.1903 259.133 44.9429C258.715 44.579 258.436 43.8451 258.297 42.7413C258.286 42.2297 258.527 41.9693 259.021 41.9601C259.63 42.0134 260.026 42.3336 260.208 42.9208C260.43 43.9254 260.574 44.6901 260.641 45.2148Z" fill="#263238"/>
</g>
</svg>
